<svg xmlns="http://www.w3.org/2000/svg" width="1024" height="1024" viewBox="0 0 1024 1024">
<g>
<path d="M 589.00 888.68 C576.09,890.97 571.37,891.29 546.00,891.55 C530.33,891.71 513.45,891.44 508.50,890.94 C484.44,888.53 453.28,882.68 434.10,876.98 C406.65,868.82 367.82,849.35 341.83,830.72 C288.92,792.78 261.17,752.73 259.26,711.50 C258.46,694.24 262.87,681.31 273.35,670.22 C288.06,654.63 306.36,646.36 363.36,629.54 C398.00,619.32 411.06,612.89 423.67,599.87 C432.14,591.12 439.68,579.42 449.03,560.52 C453.39,551.71 459.29,541.41 462.14,537.64 C471.11,525.77 486.09,514.94 499.16,510.87 C506.07,508.72 521.62,508.33 530.20,510.08 C539.54,512.00 552.83,519.14 560.84,526.56 C573.80,538.56 579.74,548.62 587.99,572.57 C594.06,590.19 602.27,607.82 608.39,616.40 C613.29,623.27 624.32,634.06 631.44,638.96 C634.01,640.73 644.84,646.38 655.51,651.52 C677.87,662.29 684.61,666.59 694.52,676.41 C717.07,698.78 731.01,728.58 731.00,754.38 C730.98,786.90 712.01,821.14 679.55,847.27 C650.76,870.45 624.75,882.34 589.00,888.68 Z" fill="rgb(13,24,69)"/>
<path d="M 449.99 312.14 L 450.00 343.78 L 443.00 344.60 L 443.00 317.73 C443.00,301.13 442.60,290.13 441.96,288.93 C440.98,287.09 439.55,287.00 409.66,287.00 C386.68,287.00 378.08,287.32 377.20,288.20 C376.33,289.07 376.00,296.43 375.98,314.95 C375.98,329.00 375.64,340.95 375.23,341.50 C374.83,342.05 373.83,342.56 373.00,342.64 C372.17,342.72 370.71,343.10 369.75,343.50 C368.10,344.17 368.00,342.27 368.00,311.74 C368.00,279.95 368.05,279.21 370.17,276.51 C374.29,271.28 376.27,271.00 409.82,271.00 C440.31,271.00 440.75,271.03 444.09,273.28 C449.92,277.21 449.97,277.53 449.99,312.14 ZM 442.28 425.64 C439.82,426.68 432.37,427.00 410.53,427.00 L 382.00 427.00 L 382.00 412.00 L 410.50 412.00 C437.67,412.00 439.09,411.91 441.00,410.00 C442.29,408.71 443.00,406.67 443.00,404.25 C443.00,401.15 443.62,400.01 446.58,397.64 L 450.17 394.78 L 449.83 407.29 C449.46,421.13 448.73,422.91 442.28,425.64 Z" fill="var(--iv-text, rgb(67,72,81))"/>
<path d="M 449.99 312.14 C449.97,277.53 449.92,277.21 444.09,273.28 C440.75,271.03 440.31,271.00 409.82,271.00 C376.27,271.00 374.29,271.28 370.17,276.51 C368.05,279.21 368.00,279.95 368.00,311.74 C368.00,342.27 368.10,344.17 369.75,343.50 C370.15,343.33 370.63,343.17 371.12,343.03 C368.67,344.80 365.03,349.42 359.95,357.20 C355.62,363.83 351.38,371.10 350.54,373.37 C349.69,375.64 347.67,386.50 346.04,397.50 C343.42,415.24 342.82,417.70 340.79,419.31 C300.35,451.35 280.84,474.08 262.95,510.00 C247.59,540.84 240.31,571.08 239.15,608.83 L 238.50 630.15 L 233.05 621.83 C183.37,545.84 159.77,469.72 164.02,399.18 C168.32,327.75 199.25,266.47 255.21,218.48 C300.03,180.05 367.14,149.16 430.00,138.05 C538.55,118.85 646.21,147.53 736.03,219.57 C758.99,237.98 783.85,262.19 798.48,280.38 C820.49,307.74 838.25,342.39 848.47,377.88 C875.01,470.09 857.27,582.12 804.92,653.00 C798.45,661.76 775.43,685.76 774.44,684.78 C774.14,684.47 774.56,681.58 775.39,678.36 C783.83,645.36 784.45,597.45 776.89,562.09 C766.63,514.13 745.65,473.06 712.27,435.61 C705.86,428.42 701.72,422.86 700.94,420.39 C700.18,417.97 699.48,406.47 699.09,390.00 C698.48,363.66 698.45,363.47 695.71,357.84 C692.75,351.79 687.04,345.94 681.52,343.31 L 678.13 341.69 L 677.82 325.26 L 677.50 308.82 L 674.69 306.41 L 671.89 304.00 L 544.85 304.00 L 541.92 306.92 L 539.00 309.85 L 539.00 391.15 L 541.92 394.08 L 544.85 397.00 L 617.19 397.00 L 621.76 401.02 C627.12,405.74 629.96,406.67 633.94,405.02 C636.48,403.97 637.22,404.10 639.84,406.04 C642.19,407.78 643.60,408.11 646.37,407.59 C649.83,406.94 649.91,407.00 650.55,410.71 C653.57,428.33 658.76,437.84 668.40,443.50 L 672.53 445.91 L 691.77 512.71 C702.36,549.44 711.01,579.98 711.01,580.57 C711.00,581.16 707.34,587.46 702.86,594.57 C698.38,601.68 688.22,617.80 680.27,630.39 C672.33,642.98 665.60,653.87 665.33,654.58 C665.02,655.39 666.85,656.90 670.17,658.58 C674.66,660.85 679.05,663.60 683.27,666.74 C676.99,662.26 669.16,658.09 655.51,651.52 C644.84,646.38 634.01,640.73 631.44,638.96 C624.32,634.06 613.29,623.27 608.39,616.40 C602.27,607.82 594.06,590.19 587.99,572.57 C579.74,548.62 573.80,538.56 560.84,526.56 C552.83,519.14 539.54,512.00 530.20,510.08 C529.42,509.92 528.58,509.78 527.70,509.66 C528.74,509.72 529.50,509.77 529.86,509.80 C532.10,509.99 532.15,509.87 530.76,507.75 C529.95,506.51 527.85,503.16 526.09,500.30 C520.62,491.42 516.19,491.81 509.50,501.77 L 504.98 508.50 L 515.05 508.99 C508.88,509.09 502.82,509.74 499.16,510.87 C486.09,514.94 471.11,525.77 462.14,537.64 C459.29,541.41 453.39,551.71 449.03,560.52 C439.68,579.42 432.14,591.12 423.67,599.87 C411.06,612.89 398.00,619.32 363.36,629.54 C334.66,638.01 315.77,644.31 302.21,650.47 C310.02,646.77 319.02,643.29 329.34,639.93 C338.23,637.04 345.67,634.54 345.88,634.38 C346.08,634.21 344.43,629.90 342.20,624.79 C336.19,611.04 332.47,601.48 325.43,581.80 L 319.11 564.10 L 373.72 449.50 L 381.86 447.81 C392.23,445.65 402.22,440.41 410.25,432.92 L 416.50 427.09 L 382.00 427.00 L 410.53 427.00 C432.37,427.00 439.82,426.68 442.28,425.64 C448.73,422.91 449.46,421.13 449.83,407.29 L 450.17 394.78 L 446.65 397.59 C450.40,394.05 456.00,384.37 456.00,381.12 C456.00,379.61 455.37,377.52 454.59,376.46 C453.39,374.81 453.39,374.15 454.59,371.82 C456.43,368.27 456.38,364.98 454.44,362.22 C453.03,360.21 453.03,359.79 454.44,357.78 C456.85,354.34 456.42,349.33 453.45,346.35 C451.38,344.29 450.14,343.87 446.95,344.18 L 445.13 344.35 L 450.00 343.78 ZM 450.00 317.00 L 450.01 342.50 L 455.00 335.00 C460.56,326.65 461.37,322.37 458.00,319.00 C456.89,317.89 454.67,317.00 453.00,317.00 ZM 261.50 690.33 C259.62,696.65 258.89,703.62 259.26,711.50 C259.44,715.37 259.85,719.23 260.48,723.09 C258.58,712.20 258.43,701.76 260.35,694.28 C260.69,692.94 261.08,691.62 261.50,690.33 ZM 445.21 879.98 C457.68,883.06 472.73,886.01 487.24,888.22 C486.67,888.13 486.09,888.05 485.50,887.96 C470.63,885.75 457.51,883.18 445.21,879.98 ZM 362.16 843.95 C378.05,853.44 395.85,862.39 412.20,869.11 C404.50,866.02 396.79,862.53 388.81,858.56 C379.55,853.95 370.65,849.06 362.16,843.95 ZM 341.72 830.64 C327.98,820.96 315.63,810.66 304.93,799.99 C315.41,810.34 327.68,820.57 341.72,830.64 ZM 716.07 704.28 C710.30,694.34 703.02,684.85 694.52,676.41 C693.75,675.65 693.00,674.92 692.25,674.22 C701.50,682.77 709.65,693.14 716.07,704.28 ZM 375.48 339.68 C375.77,335.76 375.98,326.00 375.98,314.95 C375.99,305.61 376.08,299.11 376.28,294.85 C376.08,299.06 376.00,305.46 376.00,314.62 C376.00,328.71 375.90,336.11 375.48,339.68 ZM 517.50 891.37 C525.10,891.58 535.80,891.66 546.00,891.55 C533.53,891.68 524.96,891.68 517.50,891.37 ZM 373.88 342.42 C374.37,342.24 374.83,341.95 375.12,341.64 C374.81,342.61 374.41,342.74 373.88,342.42 ZM 445.61 398.45 C443.49,400.30 443.01,401.50 443.00,404.19 C443.00,401.26 443.55,400.03 445.61,398.45 ZM 443.00 404.19 C443.00,404.21 443.00,404.23 443.00,404.25 C443.00,405.42 442.83,406.51 442.51,407.46 C442.83,406.50 443.00,405.40 443.00,404.19 Z" fill="var(--iv-accent, rgb(163,190,173))"/>
<path d="M 617.25 397.05 C624.38,397.04 630.25,397.02 633.63,397.00 C634.11,397.00 634.57,397.00 635.03,396.99 C644.51,396.94 647.99,396.91 649.27,398.58 C650.01,399.55 650.01,401.08 650.00,403.51 C650.00,403.71 650.00,403.91 650.00,404.12 C650.00,408.72 651.70,417.42 653.67,423.76 C652.42,419.99 651.40,415.67 650.55,410.71 C649.91,407.00 649.83,406.94 646.37,407.59 C643.60,408.11 642.19,407.78 639.84,406.04 C637.22,404.10 636.48,403.97 633.94,405.02 C629.96,406.67 627.12,405.74 621.76,401.02 ZM 450.00 317.00 L 453.00 317.00 C454.67,317.00 456.89,317.89 458.00,319.00 C461.37,322.37 460.56,326.65 455.00,335.00 L 450.01 342.50 ZM 684.39 381.42 C684.06,382.29 683.02,383.00 682.09,383.00 C678.65,383.00 678.00,380.86 678.00,369.65 C678.00,358.87 678.03,358.72 679.94,360.45 C683.68,363.83 686.34,376.35 684.39,381.42 ZM 657.21 431.99 C660.08,436.83 664.05,440.95 668.40,443.50 C663.70,440.74 660.06,437.07 657.21,431.99 Z" fill="rgb(203,146,123)"/>
<path d="M 617.25 397.05 L 617.19 397.00 L 544.85 397.00 L 541.92 394.08 L 539.00 391.15 L 539.00 309.85 L 541.92 306.92 L 544.85 304.00 L 671.89 304.00 L 674.69 306.41 L 677.50 308.82 L 677.82 325.26 L 678.13 341.69 L 678.82 342.02 C678.36,342.31 678.00,345.61 678.00,349.60 C678.00,355.61 678.42,357.78 680.02,360.03 C680.60,360.84 681.15,361.76 681.65,362.73 C681.12,361.78 680.54,360.99 679.94,360.45 C678.03,358.72 678.00,358.87 678.00,369.65 C678.00,375.53 678.18,378.91 678.85,380.80 C677.76,379.76 676.53,378.35 675.12,376.56 C666.85,366.04 660.65,363.45 641.03,362.33 C624.98,361.41 622.68,362.62 626.48,369.97 C628.56,373.99 632.59,376.58 641.67,379.76 L 649.50 382.50 L 649.72 395.00 C649.75,396.85 649.81,398.65 649.90,400.39 C649.81,399.63 649.62,399.04 649.27,398.58 C647.99,396.91 644.51,396.94 635.03,396.99 C634.57,397.00 634.11,397.00 633.63,397.00 C630.25,397.02 624.38,397.04 617.25,397.05 ZM 700.45 417.55 C699.06,411.80 699.02,403.92 699.01,389.23 C699.01,388.29 699.01,387.37 699.01,386.49 C699.03,387.61 699.06,388.77 699.09,390.00 C699.39,402.87 699.89,412.71 700.45,417.55 ZM 650.00 402.11 C650.38,408.32 651.13,413.83 652.27,418.67 C650.96,413.33 650.00,407.57 650.00,404.12 C650.00,403.91 650.00,403.71 650.00,403.51 L 650.00 403.49 C650.00,402.99 650.00,402.53 650.00,402.11 ZM 690.13 349.87 C687.90,347.77 684.80,345.34 682.37,343.74 C685.06,345.17 687.76,347.33 690.13,349.87 ZM 698.43 368.95 C698.09,365.32 697.58,362.55 696.81,360.20 C697.69,362.29 698.13,364.28 698.43,368.95 ZM 712.27 435.61 C726.17,451.20 737.91,467.42 747.63,484.50 C737.90,467.40 726.13,451.16 712.19,435.52 C708.41,431.28 705.72,428.23 703.80,425.27 C705.76,428.01 708.61,431.50 712.19,435.52 C712.21,435.55 712.24,435.58 712.27,435.61 ZM 683.16 366.16 C684.28,369.22 684.97,372.52 685.00,375.35 C684.82,372.35 684.14,369.00 683.16,366.16 ZM 653.36 422.73 C654.60,426.82 656.18,430.37 658.11,433.42 C657.80,432.95 657.50,432.47 657.21,431.99 C655.86,429.58 654.69,426.86 653.67,423.76 C653.56,423.42 653.46,423.08 653.36,422.73 ZM 683.94 382.13 C683.53,382.75 683.00,383.04 682.35,382.98 C682.93,382.91 683.52,382.58 683.94,382.13 Z" fill="var(--iv-accent3, rgb(254,151,126))"/>
<path d="M 716.07 704.28 C709.65,693.14 701.50,682.77 692.25,674.22 C689.28,671.40 686.48,669.03 683.27,666.74 C679.05,663.60 674.66,660.85 670.17,658.58 C666.85,656.90 665.02,655.39 665.33,654.58 C665.60,653.87 672.33,642.98 680.27,630.39 C688.22,617.80 698.38,601.68 702.86,594.57 C707.34,587.46 711.00,581.16 711.01,580.57 C711.01,579.98 702.36,549.44 691.77,512.71 L 672.53 445.91 L 668.40 443.50 C664.49,441.20 660.88,437.64 658.11,433.42 C656.18,430.37 654.60,426.82 653.36,422.73 L 653.36 422.73 C652.98,421.44 652.61,420.07 652.27,418.67 C651.13,413.83 650.38,408.32 650.00,402.11 C649.99,401.45 649.96,400.88 649.90,400.39 C649.81,398.65 649.75,396.85 649.72,395.00 L 649.50 382.50 L 641.67 379.76 C632.59,376.58 628.56,373.99 626.48,369.97 C622.68,362.62 624.98,361.41 641.03,362.33 C660.65,363.45 666.85,366.04 675.12,376.56 C676.53,378.35 677.76,379.76 678.85,380.80 C679.45,382.52 680.46,383.00 682.09,383.00 C682.18,383.00 682.26,382.99 682.35,382.98 C683.00,383.04 683.53,382.75 683.94,382.13 C684.14,381.92 684.29,381.67 684.39,381.42 C684.97,379.91 685.14,377.74 685.00,375.35 C684.97,372.52 684.28,369.22 683.16,366.17 C682.71,364.89 682.21,363.72 681.65,362.73 C681.15,361.76 680.60,360.84 680.02,360.03 C678.42,357.78 678.00,355.61 678.00,349.60 C678.00,345.61 678.36,342.31 678.82,342.02 L 681.52 343.31 C681.80,343.44 682.09,343.59 682.37,343.74 C684.80,345.34 687.90,347.77 690.13,349.87 C692.38,352.28 694.34,355.04 695.71,357.84 C696.14,358.72 696.50,359.47 696.81,360.20 C697.58,362.55 698.09,365.32 698.43,368.95 C698.66,372.65 698.81,378.03 699.01,386.49 C699.01,387.37 699.01,388.29 699.01,389.23 C699.02,403.92 699.06,411.80 700.45,417.55 C700.61,418.90 700.77,419.86 700.94,420.39 C701.28,421.47 702.26,423.14 703.80,425.27 C703.80,425.28 703.80,425.28 703.80,425.28 C705.72,428.24 708.41,431.28 712.19,435.52 C726.09,451.12 737.84,467.32 747.56,484.38 L 747.63 484.50 C761.26,508.45 770.90,534.09 776.89,562.09 C784.45,597.45 783.83,645.36 775.39,678.36 C774.56,681.58 774.14,684.47 774.44,684.78 C774.71,685.04 776.59,683.48 779.33,680.87 C773.56,686.86 772.86,688.47 771.57,693.14 C768.62,703.81 760.04,725.93 754.76,736.50 C748.72,748.57 743.39,756.91 735.10,767.31 C730.32,773.31 728.30,776.91 726.40,782.81 C722.39,795.26 715.97,807.31 707.39,818.69 C722.58,798.42 730.98,776.02 731.00,754.38 C731.01,738.31 725.60,720.69 716.07,704.28 ZM 261.50 690.33 C261.08,691.62 260.69,692.94 260.35,694.28 C259.18,698.82 258.78,704.45 259.07,710.61 C258.75,706.80 258.28,704.00 257.93,704.00 C256.79,704.00 251.40,689.54 247.54,676.14 C244.07,664.05 240.00,642.45 240.00,636.09 C240.00,633.61 238.83,630.87 235.01,624.82 L 238.50 630.15 L 239.15 608.83 C240.31,571.08 247.59,540.84 262.95,510.00 C280.84,474.08 300.35,451.35 340.79,419.31 C342.82,417.70 343.42,415.24 346.04,397.50 C347.67,386.50 349.69,375.64 350.54,373.37 C351.38,371.10 355.62,363.83 359.95,357.20 C365.03,349.42 368.67,344.80 371.12,343.03 C371.82,342.83 372.52,342.68 373.00,342.64 C373.28,342.61 373.58,342.54 373.88,342.42 C374.41,342.74 374.81,342.61 375.12,341.64 C375.16,341.59 375.20,341.55 375.23,341.50 C375.32,341.38 375.40,340.75 375.48,339.68 C375.73,337.58 375.86,334.16 375.93,328.84 C375.99,340.60 376.35,343.60 377.37,345.16 C378.23,346.47 379.21,350.01 379.56,353.02 C380.08,357.51 379.65,360.16 377.21,367.73 L 374.22 376.97 L 376.64 385.23 C377.97,389.78 379.71,397.25 380.52,401.83 C381.32,406.41 382.24,410.58 382.55,411.08 C382.87,411.60 394.88,411.99 410.50,412.00 L 382.00 412.00 L 382.00 427.00 L 416.50 427.09 L 410.25 432.92 C402.22,440.41 392.23,445.65 381.86,447.81 L 373.72 449.50 L 319.11 564.10 L 325.43 581.80 C332.47,601.48 336.19,611.04 342.20,624.79 C344.43,629.90 346.08,634.21 345.88,634.38 C345.67,634.54 338.23,637.04 329.34,639.93 C319.02,643.29 310.02,646.77 302.21,650.47 C288.84,656.54 280.65,662.48 273.35,670.22 C267.65,676.25 263.75,682.82 261.50,690.33 ZM 445.61 398.45 C443.55,400.03 443.00,401.26 443.00,404.19 C443.00,405.40 442.83,406.50 442.51,407.46 C442.84,406.49 443.00,405.37 443.00,404.12 C443.00,400.63 442.71,400.19 440.03,399.66 C433.86,398.42 430.68,392.35 433.38,386.95 C434.77,384.15 434.78,383.48 433.47,380.95 C431.61,377.34 431.62,375.63 433.54,371.92 C434.92,369.25 434.92,368.73 433.54,366.75 C432.69,365.54 432.00,363.49 432.00,362.18 C432.00,359.62 438.01,349.21 441.11,346.40 C442.88,344.80 443.00,342.92 443.00,317.78 L 443.00 344.60 L 445.13 344.35 L 446.95 344.18 C450.14,343.87 451.38,344.29 453.45,346.35 C456.42,349.33 456.85,354.34 454.44,357.78 C453.03,359.79 453.03,360.21 454.44,362.22 C456.38,364.98 456.43,368.27 454.59,371.82 C453.39,374.15 453.39,374.81 454.59,376.46 C455.37,377.52 456.00,379.61 456.00,381.12 C456.00,384.37 450.40,394.05 446.65,397.59 L 446.58 397.64 C446.23,397.93 445.90,398.19 445.61,398.45 ZM 529.86 509.80 C529.50,509.77 528.74,509.72 527.70,509.66 C524.00,509.14 519.50,508.92 515.05,508.99 L 504.98 508.50 L 509.50 501.77 C516.19,491.81 520.62,491.42 526.09,500.30 C527.85,503.16 529.95,506.51 530.76,507.75 C532.15,509.87 532.10,509.99 529.86,509.80 ZM 843.68 575.99 C864.04,513.77 866.68,441.20 848.48,377.94 C866.61,440.96 864.23,513.48 843.68,575.99 ZM 189.14 538.79 C169.77,490.95 161.31,444.12 164.02,399.18 C161.32,443.96 169.84,490.98 189.14,538.79 ZM 259.38 714.90 C259.63,717.58 260.00,720.32 260.48,723.09 C262.39,734.67 266.36,746.15 272.37,757.52 C264.85,743.40 260.49,729.16 259.38,714.90 ZM 644.83 870.40 C628.87,878.93 611.00,884.78 589.01,888.68 C610.16,884.93 627.91,879.23 644.83,870.40 ZM 376.01 309.23 C376.04,302.88 376.12,298.18 376.28,294.85 C376.47,290.66 376.77,288.63 377.20,288.20 C377.38,288.02 377.89,287.86 378.77,287.73 C377.85,287.88 377.35,288.07 377.17,288.30 C376.56,289.02 376.17,296.26 376.01,309.23 ZM 788.54 671.58 C792.71,667.21 797.06,662.45 800.44,658.51 C796.91,662.77 793.06,666.98 788.54,671.58 ZM 666.57 857.07 C670.86,854.05 675.18,850.79 679.55,847.27 C680.77,846.29 681.97,845.30 683.15,844.30 C677.99,848.73 672.46,852.99 666.57,857.07 Z" fill="rgb(254,202,135)"/>
<path d="M 0.00 512.00 L 0.00 0.00 L 512.00 0.00 L 1024.00 0.00 L 1024.00 512.00 L 1024.00 1024.00 L 512.00 1024.00 L 0.00 1024.00 L 0.00 512.00 ZM 589.00 888.68 C611.92,884.62 630.36,878.44 646.83,869.31 C687.54,846.75 715.63,816.21 726.40,782.81 C728.30,776.91 730.32,773.31 735.10,767.31 C743.39,756.91 748.72,748.57 754.76,736.50 C760.04,725.93 768.62,703.81 771.57,693.14 C773.24,687.08 773.93,686.17 786.00,674.14 C800.14,660.04 807.87,650.10 818.16,632.77 C860.57,561.30 872.47,461.27 848.47,377.88 C838.25,342.39 820.49,307.74 798.48,280.38 C783.85,262.19 758.99,237.98 736.03,219.57 C646.21,147.53 538.55,118.85 430.00,138.05 C367.14,149.16 300.03,180.05 255.21,218.48 C199.25,266.47 168.32,327.75 164.02,399.18 C159.76,469.91 183.16,545.29 233.18,621.96 C238.46,630.07 240.00,633.25 240.00,636.09 C240.00,642.45 244.07,664.05 247.54,676.14 C251.40,689.54 256.79,704.00 257.93,704.00 C258.35,704.00 258.96,708.16 259.26,713.25 C261.68,753.36 289.87,793.47 341.83,830.72 C367.82,849.35 406.65,868.82 434.10,876.98 C453.28,882.68 484.44,888.53 508.50,890.94 C513.45,891.44 530.33,891.71 546.00,891.55 C571.37,891.29 576.09,890.97 589.00,888.68 ZM 382.55 411.08 C382.24,410.58 381.32,406.41 380.52,401.83 C379.71,397.25 377.97,389.78 376.64,385.23 L 374.22 376.97 L 377.21 367.73 C379.65,360.16 380.08,357.51 379.56,353.02 C379.21,350.01 378.23,346.47 377.37,345.16 C376.05,343.15 375.84,338.74 375.95,316.19 C376.04,298.85 376.46,289.15 377.17,288.30 C378.01,287.28 385.11,287.00 409.59,287.00 C439.55,287.00 440.98,287.09 441.96,288.93 C442.60,290.13 443.00,301.14 443.00,317.78 C443.00,342.92 442.88,344.80 441.11,346.40 C438.01,349.21 432.00,359.62 432.00,362.18 C432.00,363.49 432.69,365.54 433.54,366.75 C434.92,368.73 434.92,369.25 433.54,371.92 C431.62,375.63 431.61,377.34 433.47,380.95 C434.78,383.48 434.77,384.15 433.38,386.95 C430.68,392.35 433.86,398.42 440.03,399.66 C442.71,400.19 443.00,400.63 443.00,404.12 C443.00,406.67 442.31,408.69 441.00,410.00 C439.10,411.90 437.67,412.00 411.06,412.00 C395.16,412.00 382.87,411.60 382.55,411.08 Z" fill="var(--iv-background, rgb(254,254,254))"/>
</g>
</svg>
