<svg xmlns="http://www.w3.org/2000/svg" width="1360" height="771" viewBox="0 0 1360 771">
<g>
<path class="illustration-colorizable" d="M 604.09 771.00 L 308.23 771.00 L 302.16 766.95 C293.74,761.32 287.37,753.90 282.89,744.50 C278.40,735.08 276.53,725.46 274.81,702.91 C271.15,654.87 283.60,602.63 310.20,554.50 C318.34,539.78 331.29,520.31 339.47,510.50 C352.46,494.91 379.72,466.81 410.41,437.38 C454.67,394.93 463.01,386.43 468.37,378.27 C473.76,370.08 483.11,351.55 488.07,339.25 L 491.39 331.00 L 601.00 331.00 L 601.02 360.75 C601.04,377.11 601.49,392.43 602.04,394.79 C604.73,406.45 612.52,415.95 624.54,422.22 C628.41,424.24 638.62,428.58 647.23,431.86 C684.12,445.95 693.11,452.97 719.60,488.28 C743.65,520.35 792.68,596.19 793.65,602.83 C793.87,604.32 734.45,755.95 733.13,757.27 C732.68,757.72 730.44,755.66 728.15,752.69 C718.64,740.36 694.77,719.37 684.29,714.11 C675.92,709.91 667.44,711.01 631.00,721.01 C626.88,722.15 619.11,723.61 613.74,724.26 L 603.99 725.44 L 604.04 748.22 L 604.09 771.00 Z" fill="rgb(22,100,100)"/>
<path d="M 0.00 0.00 L 1360.00 0.00 L 1360.00 771.00 L 607.97 771.00 L 995.42 770.50 L 998.06 766.50 C1001.50,761.28 1087.00,543.71 1087.00,540.19 C1086.99,536.73 1083.86,531.61 1080.34,529.30 C1077.73,527.59 1071.55,527.50 957.04,527.50 C843.29,527.50 836.24,527.60 831.83,529.30 C823.06,532.69 820.47,536.79 809.56,564.52 C804.15,578.26 798.61,592.31 797.26,595.75 C795.90,599.19 794.36,602.00 793.83,602.00 C793.67,602.00 793.55,602.04 793.46,602.10 C789.92,591.93 742.97,519.44 719.60,488.28 C693.11,452.97 684.12,445.95 647.23,431.86 C638.62,428.58 628.41,424.24 624.54,422.22 C612.52,415.95 604.73,406.45 602.04,394.79 C601.49,392.43 601.04,377.11 601.02,360.75 L 601.00 331.00 L 494.72 331.00 L 545.70 330.76 L 600.28 330.50 L 601.47 325.80 C604.72,313.01 612.71,307.16 636.91,299.86 C649.23,296.14 663.71,284.94 674.01,271.16 L 676.51 267.82 L 682.63 269.08 C689.70,270.54 693.69,269.48 697.03,265.23 C698.82,262.97 699.00,261.12 699.00,245.59 C699.00,224.75 700.13,214.89 704.16,200.50 C706.73,191.32 707.88,188.80 711.12,185.27 C715.34,180.68 719.36,172.96 721.02,166.25 C721.60,163.91 722.51,162.00 723.04,162.00 C723.57,162.00 724.00,159.98 724.00,157.50 C724.00,155.02 723.61,153.00 723.13,153.00 C722.66,153.00 720.81,148.39 719.02,142.75 C715.18,130.63 710.75,121.45 703.45,110.50 C684.89,82.63 654.06,63.22 621.25,58.76 C615.66,58.00 613.00,57.21 613.00,56.32 C613.00,55.58 611.91,55.00 610.53,55.00 C608.75,55.00 608.22,55.42 608.64,56.50 C609.13,57.77 607.67,58.00 599.01,58.00 C573.37,58.00 545.88,68.46 525.18,86.08 C501.36,106.37 486.63,133.91 482.91,165.10 C482.14,171.57 481.17,175.80 480.34,176.30 C479.60,176.74 479.00,178.18 479.00,179.50 C479.00,180.82 479.60,182.26 480.34,182.70 C481.17,183.20 482.14,187.38 482.89,193.71 C483.56,199.33 484.95,206.96 485.98,210.68 C488.01,218.01 487.89,219.00 484.94,219.00 C483.07,219.00 482.66,218.21 482.85,215.00 C482.91,213.99 482.76,213.91 482.39,214.75 C482.08,215.44 480.09,216.00 477.92,216.00 C475.24,216.00 474.00,216.44 474.00,217.39 C474.00,218.26 472.34,219.02 469.49,219.45 C461.74,220.61 450.09,227.20 443.32,234.25 C435.67,242.21 432.26,248.93 429.83,260.84 C425.99,279.62 419.03,287.33 401.74,291.94 C397.48,293.08 391.74,294.87 389.00,295.91 C368.04,303.87 351.37,323.51 346.26,346.25 C345.22,350.89 344.01,354.00 343.26,354.00 C341.50,354.00 341.68,355.94 343.51,356.64 C344.68,357.09 345.00,358.93 344.94,364.86 C344.65,396.17 369.11,424.85 402.50,432.32 C403.60,432.57 406.75,432.82 409.50,432.88 L 414.50 432.99 L 437.06 411.63 C438.07,410.67 439.05,409.74 439.99,408.84 C432.49,416.16 422.88,425.42 410.41,437.38 C379.72,466.81 352.46,494.91 339.47,510.50 C331.29,520.31 318.34,539.78 310.20,554.50 C283.60,602.63 271.15,654.87 274.81,702.91 C276.53,725.46 278.40,735.08 282.89,744.50 C287.37,753.90 293.74,761.32 302.16,766.95 L 308.23 771.00 L 0.00 771.00 ZM 631.96 303.82 C629.93,305.72 629.94,305.72 633.42,304.63 C636.01,303.82 636.54,303.32 635.47,302.72 C634.53,302.20 633.28,302.59 631.96,303.82 ZM 482.00 218.00 C482.00,218.55 481.10,219.00 480.00,219.00 C478.90,219.00 478.00,218.55 478.00,218.00 C478.00,217.45 478.90,217.00 480.00,217.00 C481.10,217.00 482.00,217.45 482.00,218.00 ZM 763.51 681.29 C748.73,719.10 733.88,756.52 733.13,757.27 C733.79,756.61 748.67,719.15 763.51,681.29 ZM 460.35 388.27 C464.72,383.32 467.88,379.03 470.90,374.18 C469.99,375.72 469.14,377.10 468.37,378.27 C466.51,381.10 464.30,383.97 460.35,388.27 ZM 480.56 355.90 C483.02,350.72 485.58,345.10 487.50,340.64 C485.59,345.25 483.15,350.60 480.56,355.90 ZM 490.24 333.87 C490.31,333.65 490.38,333.44 490.44,333.26 L 491.13 331.02 L 491.39 331.02 Z" fill="none" class="illustration-background"/>
<path class="illustration-colorizable-secondary" d="M 604.67 758.33 C605.53,759.20 732.00,759.21 732.00,758.34 C732.00,757.78 731.32,756.63 730.14,755.06 C731.62,756.66 732.82,757.58 733.13,757.27 C733.79,756.61 748.67,719.15 763.51,681.29 C778.66,642.65 793.76,603.58 793.65,602.83 C793.62,602.64 793.56,602.40 793.46,602.10 C793.55,602.04 793.67,602.00 793.83,602.00 C794.36,602.00 795.90,599.19 797.26,595.75 C798.61,592.31 804.15,578.26 809.56,564.52 C820.47,536.79 823.06,532.69 831.83,529.30 C836.24,527.60 843.29,527.50 957.04,527.50 C1071.55,527.50 1077.73,527.59 1080.34,529.30 C1083.86,531.61 1086.99,536.73 1087.00,540.19 C1087.00,543.71 1001.50,761.28 998.06,766.50 L 995.42 770.50 L 799.76 770.75 L 607.97 771.00 L 604.09 771.00 L 604.04 748.22 L 604.04 746.89 C604.13,753.26 604.38,758.04 604.67,758.33 ZM 726.99 751.23 C722.26,745.82 714.89,738.35 707.88,731.90 C715.24,738.46 722.38,745.58 726.99,751.23 ZM 685.90 714.98 C681.41,712.54 678.07,712.00 672.58,712.00 C671.36,712.00 670.14,712.05 668.81,712.16 C676.13,711.28 680.22,712.07 684.29,714.11 C684.79,714.37 685.33,714.66 685.90,714.98 ZM 604.00 730.48 L 603.99 725.44 L 604.00 725.44 Z" fill="rgb(151,151,151)"/>
<path d="M 482.00 218.00 C482.00,217.92 481.98,217.83 481.94,217.75 C482.09,217.90 482.21,218.06 482.27,218.25 C482.51,218.94 482.71,218.15 482.71,216.50 C482.71,215.39 482.62,214.68 482.49,214.53 C482.79,213.94 482.91,214.09 482.85,215.00 C482.66,218.21 483.07,219.00 484.94,219.00 C487.89,219.00 488.01,218.01 485.98,210.68 C484.95,206.96 483.56,199.33 482.89,193.71 C482.22,188.12 481.39,184.20 480.63,183.02 C481.36,183.04 482.00,181.69 482.00,179.42 C482.00,176.99 481.59,175.97 480.75,176.25 C479.52,176.66 478.82,178.70 479.12,180.57 C479.04,180.22 479.00,179.86 479.00,179.50 C479.00,178.18 479.60,176.74 480.34,176.30 C481.17,175.80 482.14,171.57 482.91,165.10 C486.63,133.91 501.36,106.37 525.18,86.08 C545.88,68.46 573.37,58.00 599.01,58.00 C607.67,58.00 609.13,57.77 608.64,56.50 C608.95,57.33 610.07,58.00 611.11,58.00 C612.15,58.00 613.00,57.33 613.00,56.50 C613.00,56.12 612.84,55.80 612.56,55.56 C612.84,55.77 613.00,56.03 613.00,56.32 C613.00,57.21 615.66,58.00 621.25,58.76 C654.06,63.22 684.89,82.63 703.45,110.50 C710.75,121.45 715.18,130.63 719.02,142.75 C720.81,148.39 722.66,153.00 723.13,153.00 C723.61,153.00 724.00,155.02 724.00,157.50 C724.00,159.98 723.57,162.00 723.04,162.00 C722.51,162.00 721.60,163.91 721.02,166.25 C719.36,172.96 715.34,180.68 711.12,185.27 C707.88,188.80 706.73,191.32 704.16,200.50 C702.46,206.56 701.28,211.81 700.48,217.43 C701.27,211.72 702.43,206.50 704.06,200.78 C705.66,195.20 706.85,190.52 706.72,190.38 C706.58,190.25 703.13,191.79 699.05,193.82 L 691.64 197.50 L 660.57 198.11 C626.64,198.77 623.87,199.17 610.51,205.30 C601.68,209.34 591.51,216.92 577.50,229.91 C556.21,249.65 542.73,256.49 522.75,257.71 C513.85,258.25 512.92,258.50 512.54,260.40 C512.30,261.56 511.20,267.26 510.08,273.08 C507.93,284.28 501.40,305.59 495.57,320.40 C493.65,325.30 492.31,329.69 492.60,330.16 C492.87,330.60 513.99,330.86 540.68,330.78 L 494.72 331.00 L 491.39 331.00 L 491.39 331.02 L 491.13 331.02 L 490.44 333.26 C490.38,333.44 490.31,333.65 490.24,333.87 L 488.07 339.25 C487.88,339.71 487.70,340.17 487.50,340.64 C485.58,345.10 483.02,350.72 480.56,355.90 C477.30,362.60 473.81,369.23 470.90,374.18 C467.88,379.03 464.72,383.32 460.35,388.27 L 460.35 388.27 C456.12,392.90 449.90,399.18 439.99,408.84 C439.05,409.74 438.07,410.67 437.06,411.63 L 414.50 432.99 L 409.50 432.88 C406.75,432.82 403.60,432.57 402.50,432.32 C369.11,424.85 344.65,396.17 344.94,364.86 C344.99,359.90 344.77,357.80 344.02,356.99 C344.59,356.95 345.00,356.42 345.00,355.50 C345.00,354.67 344.33,354.00 343.50,354.00 C342.68,354.00 342.18,354.32 342.05,354.79 C342.12,354.34 342.52,354.00 343.26,354.00 C344.01,354.00 345.22,350.89 346.26,346.25 C351.37,323.51 368.04,303.87 389.00,295.91 C391.74,294.87 397.48,293.08 401.74,291.94 C419.03,287.33 425.99,279.62 429.83,260.84 C432.26,248.93 435.67,242.21 443.32,234.25 C450.09,227.20 461.74,220.61 469.49,219.45 C472.34,219.02 474.00,218.26 474.00,217.39 C474.00,217.07 474.14,216.81 474.42,216.61 C474.13,216.83 474.00,217.13 474.00,217.50 C474.00,218.33 474.89,219.00 476.00,219.00 C477.10,219.00 478.00,218.55 478.00,218.00 C478.00,217.36 478.73,217.04 479.59,217.02 C478.69,217.12 478.00,217.52 478.00,218.00 C478.00,218.55 478.90,219.00 480.00,219.00 C481.10,219.00 482.00,218.55 482.00,218.00 ZM 724.00 157.50 C724.00,155.02 723.55,153.00 723.00,153.00 C722.45,153.00 722.00,155.02 722.00,157.50 C722.00,159.98 722.45,162.00 723.00,162.00 C723.55,162.00 724.00,159.98 724.00,157.50 ZM 481.12 215.55 C480.31,215.83 479.17,216.00 477.92,216.00 C479.13,216.00 480.28,215.83 481.12,215.55 Z" fill="rgb(174,122,65)"/>
<path d="M 479.59 217.02 C478.73,217.04 478.00,217.36 478.00,218.00 C478.00,218.55 477.10,219.00 476.00,219.00 C474.89,219.00 474.00,218.33 474.00,217.50 C474.00,217.13 474.13,216.83 474.42,216.61 C474.99,216.20 476.13,216.00 477.92,216.00 C479.17,216.00 480.31,215.83 481.12,215.55 C481.78,215.34 482.25,215.06 482.39,214.75 C482.42,214.67 482.46,214.59 482.49,214.53 C482.62,214.68 482.71,215.39 482.71,216.50 C482.71,218.15 482.51,218.94 482.27,218.25 C482.21,218.06 482.09,217.90 481.94,217.75 C481.72,217.32 480.93,217.00 480.00,217.00 C479.86,217.00 479.73,217.01 479.59,217.02 ZM 480.34 182.70 C479.80,182.38 479.33,181.52 479.12,180.57 C478.82,178.70 479.52,176.66 480.75,176.25 C481.59,175.97 482.00,176.99 482.00,179.42 C482.00,181.69 481.36,183.04 480.63,183.02 C480.53,182.87 480.43,182.76 480.34,182.70 ZM 723.00 153.00 C723.55,153.00 724.00,155.02 724.00,157.50 C724.00,159.98 723.55,162.00 723.00,162.00 C722.45,162.00 722.00,159.98 722.00,157.50 C722.00,155.02 722.45,153.00 723.00,153.00 ZM 610.53 55.00 C611.37,55.00 612.11,55.22 612.56,55.56 C612.84,55.80 613.00,56.12 613.00,56.50 C613.00,57.33 612.15,58.00 611.11,58.00 C610.07,58.00 608.95,57.33 608.64,56.50 C608.22,55.42 608.75,55.00 610.53,55.00 ZM 631.96 303.82 C633.28,302.59 634.53,302.20 635.47,302.72 C636.54,303.32 636.01,303.82 633.42,304.63 C629.94,305.72 629.93,305.72 631.96,303.82 ZM 343.51 356.64 C342.45,356.24 341.94,355.41 342.05,354.79 C342.18,354.32 342.68,354.00 343.50,354.00 C344.33,354.00 345.00,354.67 345.00,355.50 C345.00,356.42 344.59,356.95 344.02,356.99 C343.87,356.83 343.70,356.71 343.51,356.64 Z" fill="rgb(255,254,255)"/>
<path d="M 604.67 758.33 C604.30,757.97 604.00,750.42 604.00,741.55 L 604.00 725.44 L 613.75 724.26 C619.11,723.60 626.88,722.15 631.00,721.01 C658.05,713.59 665.38,712.00 672.58,712.00 C681.38,712.00 684.69,713.38 696.00,721.81 C708.24,730.93 732.00,755.04 732.00,758.34 C732.00,759.21 605.53,759.20 604.67,758.33 ZM 492.60 330.16 C492.31,329.69 493.65,325.30 495.57,320.40 C501.40,305.59 507.93,284.28 510.08,273.08 C511.20,267.26 512.30,261.56 512.54,260.40 C512.92,258.50 513.85,258.25 522.75,257.71 C542.73,256.49 556.21,249.65 577.50,229.91 C591.51,216.92 601.68,209.34 610.51,205.30 C623.87,199.17 626.64,198.77 660.57,198.11 L 691.64 197.50 L 699.05 193.82 C703.13,191.79 706.58,190.25 706.72,190.38 C706.85,190.52 705.66,195.20 704.06,200.78 C700.22,214.23 699.01,224.97 699.00,245.62 C699.00,261.12 698.81,262.97 697.03,265.23 C693.69,269.48 689.70,270.54 682.63,269.08 L 676.51 267.82 L 674.01 271.16 C663.71,284.94 649.23,296.14 636.91,299.86 C612.71,307.16 604.72,313.01 601.47,325.80 L 600.28 330.50 L 546.70 330.76 C517.24,330.90 492.89,330.63 492.60,330.16 Z" fill="rgb(254,157,132)"/>
</g>
</svg>