<svg xmlns="http://www.w3.org/2000/svg" width="1365" height="768" viewBox="0 0 1365 768">
<g>
<path d="M 995.34 274.25 L 987.87 289.00 L 983.18 288.86 C958.86,288.16 931.15,281.88 920.50,274.65 C905.32,264.35 896.06,247.19 896.01,229.30 C895.99,218.38 893.33,209.32 888.63,204.15 C884.35,199.44 881.31,198.63 865.50,197.93 C848.36,197.17 839.64,195.34 829.33,190.33 C813.87,182.81 803.05,166.13 803.01,149.73 C803.00,145.42 802.43,144.25 796.99,137.41 C790.19,128.85 783.76,116.21 781.95,107.87 C780.79,102.48 780.98,85.68 782.23,84.44 C782.55,84.12 784.95,84.58 787.57,85.47 C790.18,86.36 795.81,87.56 800.07,88.13 C813.26,89.90 822.60,88.21 869.50,75.52 C905.36,65.82 934.54,67.08 960.63,79.43 C993.11,94.82 1016.70,125.44 1023.43,160.97 C1025.68,172.81 1025.50,192.76 1023.03,204.84 C1019.50,222.08 1011.14,243.04 995.34,274.25 ZM 435.36 428.30 C434.47,429.19 394.56,429.22 393.67,428.33 C393.30,427.97 393.00,421.89 393.00,414.83 L 393.00 402.00 L 651.00 402.00 L 651.00 429.00 L 629.50 429.00 C617.67,429.00 608.00,428.67 608.00,428.27 C608.00,427.87 611.48,424.05 615.73,419.77 L 623.45 412.00 L 420.55 412.00 L 428.30 419.80 C432.57,424.09 435.75,427.92 435.36,428.30 Z" fill="rgb(45,6,21)"/>
<path d="M 998.50 768.00 L 303.00 768.00 L 303.02 553.75 C303.03,419.43 303.40,335.96 304.03,330.00 C306.87,302.76 317.12,281.10 336.50,261.39 C352.34,245.28 368.05,235.90 388.79,230.19 L 398.50 227.51 L 518.40 227.23 C621.07,226.99 639.54,227.16 646.90,228.44 C669.95,232.43 689.71,242.71 706.60,259.47 C720.20,272.97 729.06,287.11 734.98,304.78 C740.99,322.72 741.00,322.90 741.00,418.42 L 741.00 505.59 L 735.91 511.54 C728.77,519.90 716.12,539.17 710.19,550.74 C702.94,564.88 699.84,572.85 683.66,619.00 C675.66,641.83 660.77,684.28 650.56,713.35 C640.35,742.42 632.00,766.61 632.00,767.10 C632.00,767.63 782.27,768.00 998.50,768.00 ZM 435.36 428.30 C435.75,427.92 432.57,424.09 428.30,419.80 L 426.51 418.00 L 444.35 435.85 L 468.19 459.70 L 465.63 464.75 C462.26,471.39 460.77,480.93 461.95,488.21 C462.46,491.32 465.64,504.58 469.03,517.68 L 475.19 541.50 L 475.50 768.00 L 535.36 768.00 C590.21,768.00 595.16,767.86 594.59,766.37 C594.03,764.93 555.39,637.54 549.43,617.50 C548.12,613.10 543.70,598.52 539.60,585.10 L 532.15 560.70 L 535.16 555.37 C539.25,548.13 540.98,541.03 540.98,531.50 C540.98,522.06 539.31,515.13 535.37,508.11 L 532.50 503.01 L 578.00 457.50 L 616.68 418.81 L 615.73 419.77 C611.48,424.05 608.00,427.87 608.00,428.27 C608.00,428.67 617.67,429.00 629.50,429.00 L 651.00 429.00 L 651.00 402.00 L 393.00 402.00 L 393.00 414.83 C393.00,421.89 393.30,427.97 393.67,428.33 C394.56,429.22 434.47,429.19 435.36,428.30 Z" fill="rgb(225,0,20)"/>
<path class="illustration-colorizable" d="M 998.50 768.00 C782.27,768.00 632.00,767.63 632.00,767.10 C632.00,766.61 640.35,742.42 650.56,713.35 C660.77,684.28 675.66,641.83 683.66,619.00 C699.84,572.85 702.94,564.88 710.19,550.74 C716.12,539.17 728.77,519.90 735.91,511.54 L 741.00 505.59 L 741.00 504.66 L 750.25 495.54 C771.17,474.91 796.17,457.95 824.15,445.39 C839.37,438.56 852.81,434.31 863.98,432.79 L 872.98 431.56 L 873.24 395.66 L 873.50 359.76 L 909.50 360.00 C929.30,360.14 955.53,360.53 967.79,360.87 L 990.08 361.50 L 994.37 371.00 C1006.98,398.93 1025.82,423.42 1057.10,452.53 C1099.01,491.54 1129.38,525.99 1139.49,546.00 C1143.45,553.84 1148.25,567.21 1151.08,578.30 C1155.67,596.31 1155.96,602.68 1155.98,687.75 L 1156.00 768.00 L 998.50 768.00 ZM 475.28 610.00 L 511.07 610.00 C544.96,610.00 547.10,609.89 546.58,608.25 C546.28,607.29 542.91,596.19 539.09,583.60 L 532.40 561.50 L 539.60 585.10 C543.70,598.52 548.12,613.10 549.43,617.50 C555.39,637.54 594.03,764.93 594.59,766.37 C595.16,767.86 590.21,768.00 535.36,768.00 L 475.50 768.00 Z" fill="rgb(120,171,74)"/>
<path d="M 623.45 412.00 L 616.68 418.81 L 578.00 457.50 L 532.50 503.01 L 534.98 507.42 C530.90,501.09 518.32,488.89 508.21,481.54 C503.69,478.27 500.00,475.16 500.00,474.64 C500.00,474.11 502.28,465.16 505.07,454.74 C510.53,434.35 510.68,431.83 506.99,423.33 C504.97,418.67 501.02,415.53 498.30,416.43 C496.60,416.99 471.68,453.88 465.87,464.27 L 468.19 459.70 L 444.35 435.85 L 426.51 418.00 L 420.55 412.00 ZM 461.89 477.58 C461.45,481.30 461.44,485.06 461.95,488.21 C461.42,484.96 461.43,481.27 461.89,477.58 ZM 539.66 518.95 C540.56,522.73 540.98,526.80 540.98,531.50 C540.98,526.87 540.55,522.74 539.66,518.95 Z" fill="rgb(254,253,253)"/>
<path d="M 0.00 0.00 L 1365.00 0.00 L 1365.00 768.00 L 1156.00 768.00 L 1155.98 687.75 C1155.96,602.68 1155.67,596.31 1151.08,578.30 C1148.25,567.21 1143.45,553.84 1139.49,546.00 C1129.38,525.99 1099.01,491.54 1057.10,452.53 C1025.82,423.42 1006.98,398.93 994.37,371.00 L 990.08 361.50 L 972.31 361.00 L 989.63 361.00 L 988.27 351.75 C987.42,345.94 986.88,332.60 986.83,315.85 L 986.74 289.19 L 981.50 288.81 C982.07,288.83 982.63,288.85 983.18,288.86 L 987.87 289.00 L 995.34 274.25 C1011.14,243.04 1019.50,222.08 1023.03,204.84 C1025.50,192.76 1025.68,172.81 1023.43,160.97 C1016.70,125.44 993.11,94.82 960.63,79.43 C934.54,67.08 905.36,65.82 869.50,75.52 C822.60,88.21 813.26,89.90 800.07,88.13 C795.81,87.56 790.18,86.36 787.57,85.47 C784.95,84.58 782.55,84.12 782.23,84.44 C780.98,85.68 780.79,102.48 781.95,107.87 C783.76,116.21 790.19,128.85 796.99,137.41 C802.43,144.25 803.00,145.42 803.01,149.73 C803.05,166.13 813.87,182.81 829.33,190.33 C832.24,191.74 835.01,192.89 837.88,193.85 C830.90,191.78 825.30,188.97 821.06,185.39 C819.40,184.00 817.58,183.14 817.02,183.49 C816.46,183.83 816.00,186.53 816.00,189.47 C816.00,200.76 810.71,220.22 802.27,239.98 C796.85,252.69 796.85,256.64 802.30,261.64 C805.05,264.16 806.93,264.91 811.93,265.49 C815.35,265.89 818.30,266.73 818.49,267.36 C824.18,286.04 827.76,293.83 834.95,303.15 C838.00,307.10 843.85,312.64 849.52,316.97 C866.41,329.83 872.97,339.80 872.99,352.64 L 873.00 359.79 L 873.50 359.79 L 873.24 395.66 L 872.98 431.56 L 863.98 432.79 C852.81,434.31 839.37,438.56 824.15,445.39 C796.17,457.95 771.17,474.91 750.25,495.54 L 741.00 504.66 L 741.00 418.42 C741.00,322.90 740.99,322.72 734.98,304.78 C729.06,287.11 720.20,272.97 706.60,259.47 C689.71,242.71 669.95,232.43 646.90,228.44 C639.54,227.16 621.07,226.99 518.40,227.23 L 398.50 227.51 L 388.79 230.19 C368.05,235.90 352.34,245.28 336.50,261.39 C317.12,281.10 306.87,302.76 304.03,330.00 C303.40,335.96 303.03,419.43 303.02,553.75 L 303.00 768.00 L 0.00 768.00 ZM 882.94 359.83 L 912.72 359.94 C934.45,360.03 952.46,360.30 952.88,360.55 C939.81,360.31 923.13,360.10 909.50,360.00 ZM 948.24 284.54 C938.91,282.60 930.95,280.14 925.13,277.33 C924.64,277.09 924.08,276.79 923.48,276.42 C929.34,279.52 938.17,282.36 948.24,284.54 ZM 905.43 259.54 C899.35,250.68 896.04,240.21 896.01,229.30 C896.04,240.10 899.42,250.62 905.43,259.54 Z" fill="none" class="illustration-background"/>
<path d="M 475.00 575.40 L 475.00 540.81 L 468.94 517.33 C465.60,504.42 462.46,491.32 461.95,488.21 C460.83,481.32 462.22,471.49 465.14,465.64 C469.10,457.70 496.51,417.02 498.30,416.43 C501.02,415.53 504.97,418.67 506.99,423.33 C510.68,431.83 510.53,434.35 505.07,454.74 C502.28,465.16 500.00,474.11 500.00,474.64 C500.00,475.16 503.69,478.27 508.21,481.54 C518.78,489.22 532.03,502.19 535.48,508.24 C539.25,514.86 540.98,522.17 540.98,531.50 C540.98,541.03 539.25,548.13 535.16,555.37 L 532.15 560.70 L 539.09 583.60 C542.91,596.19 546.28,607.29 546.58,608.25 C547.10,609.89 544.96,610.00 511.07,610.00 L 475.00 610.00 L 475.00 575.40 ZM 952.88 360.55 C952.64,360.30 934.56,360.03 912.72,359.94 L 873.00 359.79 L 872.99 352.64 C872.97,339.80 866.41,329.83 849.52,316.97 C843.85,312.64 838.00,307.10 834.95,303.15 C827.76,293.83 824.18,286.04 818.49,267.36 C818.30,266.73 815.35,265.89 811.93,265.49 C806.93,264.91 805.05,264.16 802.30,261.64 C796.85,256.64 796.85,252.69 802.27,239.98 C810.71,220.22 816.00,200.76 816.00,189.47 C816.00,186.53 816.46,183.83 817.02,183.49 C817.58,183.14 819.40,184.00 821.06,185.39 C829.91,192.84 844.66,197.00 865.50,197.93 C881.31,198.63 884.35,199.44 888.63,204.15 C893.33,209.32 895.99,218.38 896.01,229.30 C896.05,244.11 902.14,258.12 913.00,268.36 C916.71,271.86 922.17,275.90 925.13,277.33 C936.45,282.80 955.80,286.92 977.62,288.52 L 986.74 289.19 L 986.83 315.85 C986.88,332.60 987.42,345.94 988.27,351.75 L 989.63 361.00 L 971.48 361.00 C961.50,361.00 953.13,360.80 952.88,360.55 Z" fill="rgb(246,153,94)"/>
</g>
</svg>