<svg xmlns="http://www.w3.org/2000/svg" width="1365" height="768" viewBox="0 0 1365 768">
<g>
<path d="M 1265.00 585.01 C1265.00,586.99 1264.00,587.00 1132.00,587.00 L 999.00 587.00 L 999.00 450.66 C999.00,318.16 998.94,314.10 997.02,306.60 C992.86,290.32 983.88,278.88 970.14,272.39 C965.94,270.40 958.45,266.83 953.50,264.46 C917.29,247.10 904.55,221.53 913.35,183.91 C928.75,118.14 1001.21,83.26 1061.77,112.46 C1073.46,118.10 1078.46,121.55 1087.82,130.42 C1102.23,144.08 1111.07,158.63 1117.34,179.00 C1126.73,209.50 1127.05,212.50 1127.97,280.50 C1128.77,339.00 1129.16,344.92 1133.53,364.34 C1135.70,373.99 1140.40,388.33 1145.11,399.64 C1158.21,431.12 1173.08,452.98 1200.46,481.00 C1226.90,508.06 1241.03,526.83 1252.03,549.50 C1257.76,561.32 1265.00,581.13 1265.00,585.01 Z" fill="rgb(14,25,69)"/>
<path d="M 406.45 281.42 L 403.57 291.00 L 376.03 290.97 C352.03,290.94 347.82,290.70 343.22,289.11 C329.10,284.23 321.39,268.31 326.37,254.32 C327.19,252.02 330.99,245.48 334.81,239.78 C352.29,213.72 355.16,202.68 354.88,162.50 C354.74,142.67 355.04,136.03 356.31,130.38 C360.66,111.11 372.52,89.41 386.15,75.78 C399.34,62.59 417.90,52.72 436.88,48.80 C444.79,47.16 449.08,46.90 461.00,47.29 C478.30,47.86 487.13,49.91 500.95,56.56 C536.47,73.66 558.34,109.45 556.76,147.89 C556.30,158.91 555.59,163.03 554.14,162.97 C553.79,162.96 549.51,153.75 544.64,142.52 C539.77,131.28 535.23,121.33 534.56,120.41 C533.48,118.93 532.87,119.54 529.66,125.28 C521.21,140.39 504.64,159.48 486.83,174.63 C482.06,178.68 477.93,182.00 477.66,182.00 C477.38,182.00 476.64,180.45 476.02,178.55 C472.78,168.76 460.13,165.11 450.86,171.29 C444.78,175.36 444.00,178.35 444.00,197.73 L 444.00 214.97 L 437.63 223.23 C423.93,241.01 411.76,263.72 406.45,281.42 ZM 748.75 487.46 C744.16,490.67 741.99,488.69 736.20,475.96 L 732.12 467.00 L 755.99 467.00 C779.44,467.00 779.88,467.04 780.54,469.12 C781.91,473.44 774.71,479.11 771.68,476.08 C769.87,474.27 769.12,474.84 768.43,478.52 C767.78,481.98 764.03,486.00 761.44,486.00 C760.74,486.00 758.62,484.20 756.74,482.00 L 753.31 478.01 L 752.13 481.97 C751.48,484.15 749.95,486.62 748.75,487.46 ZM 813.69 449.83 C811.38,451.99 808.94,452.60 807.67,451.33 C807.30,450.97 807.00,445.49 807.00,439.16 L 807.00 427.65 L 809.63 430.08 C815.75,435.71 817.84,445.92 813.69,449.83 Z" fill="rgb(67,36,34)"/>
<path class="illustration-colorizable-tertiary" d="M 780.52 641.62 L 779.10 645.00 L 150.00 645.00 L 150.00 625.00 L 786.91 625.00 L 784.42 631.62 C783.05,635.26 781.29,639.76 780.52,641.62 Z" fill="rgb(78,78,78)"/>
<path class="illustration-colorizable" d="M 786.33 624.75 C786.36,624.79 786.36,624.88 786.36,625.00 L 150.00 625.00 L 150.00 624.00 L 232.00 624.00 L 232.00 562.96 C232.00,526.89 232.43,497.95 233.06,492.21 C238.02,446.58 262.35,405.51 299.00,380.89 C311.62,372.41 335.14,361.37 346.74,358.48 L 356.99 355.93 L 435.03 355.96 C437.69,355.96 440.26,355.96 442.74,355.97 C501.95,355.99 514.39,355.99 526.19,358.73 C529.83,359.58 533.41,360.68 538.27,362.13 C551.07,365.92 568.04,372.83 575.11,377.11 C595.27,389.33 614.15,407.70 628.44,429.00 C641.24,448.07 652.99,476.78 706.18,618.75 L 708.14 624.00 L 747.01 624.00 C768.39,624.00 786.08,624.34 786.33,624.75 ZM 780.52 641.62 C780.76,641.03 781.10,640.18 781.50,639.18 L 779.45 644.50 L 779.31 644.50 ZM 153.89 645.00 L 150.00 645.00 L 150.00 645.00 Z" fill="rgb(140,182,231)"/>
<path d="M 998.97 381.26 L 995.25 380.64 C993.19,380.30 986.26,380.02 979.86,380.01 C979.38,380.01 978.92,380.01 978.48,380.01 C972.12,380.01 969.28,380.01 968.01,378.60 C966.99,377.46 966.99,375.40 966.99,371.67 C966.99,371.35 966.99,371.01 966.99,370.67 C966.97,358.98 960.92,349.85 945.01,337.51 C939.57,333.28 933.30,327.48 931.08,324.61 C926.54,318.72 918.93,303.03 916.96,295.50 C915.45,289.73 914.72,289.04 910.15,289.02 C902.91,288.98 896.01,283.08 896.00,276.92 C896.00,275.50 897.73,270.33 899.85,265.42 C904.40,254.89 909.34,240.18 911.49,230.79 C912.58,226.04 912.80,223.95 912.19,219.53 C916.52,238.62 930.12,253.25 953.50,264.46 C958.45,266.83 965.94,270.40 970.14,272.39 C983.88,278.88 992.86,290.32 997.02,306.60 C998.53,312.48 998.89,316.24 998.97,381.26 ZM 834.03 525.12 C830.05,530.28 826.45,534.63 826.02,534.79 C825.60,534.95 824.56,533.36 823.72,531.25 C822.38,527.91 821.09,526.88 813.71,523.22 C801.42,517.13 795.87,511.73 790.53,500.62 C788.11,495.60 785.15,487.67 783.96,483.00 C782.76,478.33 781.60,473.88 781.38,473.13 C781.10,472.18 780.34,472.57 778.91,474.38 C776.84,477.01 772.69,477.92 771.50,476.00 C771.45,475.91 771.39,475.83 771.34,475.76 C771.45,475.86 771.56,475.96 771.68,476.08 C774.71,479.11 781.91,473.44 780.54,469.12 C780.07,467.65 779.72,467.20 771.34,467.06 L 780.01 466.96 L 779.38 461.23 C779.03,458.08 778.46,455.24 778.12,454.92 C777.78,454.60 774.58,453.51 771.00,452.50 C767.42,451.48 763.15,450.00 761.50,449.21 C755.12,446.14 750.36,439.68 751.41,435.52 C752.43,431.42 756.16,430.81 774.21,431.78 C794.04,432.85 795.45,433.44 802.00,443.48 L 806.50 450.38 L 806.77 430.19 C806.92,418.73 807.44,410.00 807.96,410.00 C809.61,410.00 816.41,414.25 819.84,417.41 C824.32,421.55 827.03,427.15 838.49,456.00 C850.46,486.12 850.82,486.83 856.67,491.84 L 861.41 495.89 L 851.34 505.81 C845.80,511.27 838.01,519.96 834.03,525.12 ZM 813.69 449.83 C817.84,445.92 815.75,435.71 809.63,430.08 L 807.00 427.65 L 807.00 439.16 C807.00,445.49 807.30,450.97 807.67,451.33 C808.94,452.60 811.38,451.99 813.69,449.83 ZM 931.87 144.26 C934.19,141.13 936.67,138.14 939.30,135.32 C950.91,122.85 965.30,113.74 980.92,108.26 C961.67,115.17 944.47,127.57 931.87,144.26 ZM 910.68 204.01 C910.75,194.28 912.69,183.94 916.24,173.82 C915.13,177.10 914.16,180.46 913.35,183.91 C911.69,191.03 910.79,197.72 910.68,204.01 ZM 732.34 467.50 L 734.97 473.27 L 732.21 467.50 ZM 769.95 475.10 C769.33,475.41 768.79,476.58 768.43,478.52 C768.84,476.32 769.28,475.23 769.95,475.10 ZM 742.78 487.55 C743.28,488.03 743.76,488.37 744.24,488.57 C744.17,488.55 744.10,488.53 744.03,488.51 C743.67,488.40 743.26,488.08 742.78,487.55 Z" fill="rgb(150,91,51)"/>
<path d="M 0.00 0.00 L 1365.00 0.00 L 1365.00 768.00 L 1272.00 768.00 L 1272.12 692.83 C1272.26,602.95 1272.26,598.51 1270.05,596.47 C1269.91,596.33 1269.75,596.21 1269.58,596.07 C1268.86,595.47 1268.41,593.05 1268.52,590.27 C1268.73,584.44 1265.27,572.08 1259.41,557.70 C1256.98,551.76 1255.00,546.35 1255.00,545.68 C1255.00,545.00 1253.20,542.05 1251.00,539.12 C1248.80,536.19 1247.00,533.24 1247.00,532.55 C1247.00,531.87 1246.05,530.22 1244.88,528.90 C1243.72,527.58 1240.73,523.42 1238.23,519.66 C1235.74,515.90 1233.11,512.60 1232.39,512.32 C1231.67,512.04 1230.82,511.00 1230.50,510.00 C1229.65,507.31 1223.93,500.46 1222.81,500.77 C1222.28,500.93 1222.11,500.63 1222.43,500.11 C1222.75,499.59 1220.87,497.26 1218.26,494.93 C1215.64,492.59 1214.40,491.31 1215.50,492.07 C1216.60,492.83 1210.75,486.49 1202.50,477.99 C1194.25,469.49 1187.13,462.65 1186.68,462.79 C1186.22,462.93 1186.11,462.62 1186.44,462.10 C1186.76,461.59 1185.89,460.27 1184.51,459.19 C1183.13,458.10 1182.00,456.82 1182.00,456.34 C1182.00,455.86 1180.31,453.36 1178.25,450.78 C1162.17,430.72 1146.48,399.58 1139.04,372.96 C1137.89,368.85 1136.70,364.60 1136.40,363.50 C1135.27,359.43 1134.89,356.39 1134.99,352.25 C1135.05,349.91 1134.70,348.00 1134.21,348.00 C1133.04,348.00 1132.78,345.95 1132.82,336.75 C1132.84,332.03 1132.44,329.00 1131.81,329.00 C1131.23,329.00 1131.00,328.10 1131.29,327.00 C1131.58,325.90 1131.32,323.39 1130.72,321.43 C1129.86,318.63 1129.90,317.68 1130.93,317.05 C1131.98,316.39 1132.16,307.15 1131.85,269.07 C1131.61,239.87 1131.09,221.64 1130.48,221.20 C1129.28,220.34 1128.86,218.74 1128.41,213.33 C1128.22,211.04 1127.82,207.89 1127.52,206.33 C1127.22,204.77 1126.72,201.93 1126.42,200.00 C1126.11,198.07 1124.52,192.00 1122.89,186.50 C1121.26,181.00 1119.69,175.38 1119.40,174.00 C1118.62,170.26 1110.53,153.57 1105.87,146.08 C1102.27,140.31 1085.00,121.74 1085.00,123.66 C1085.00,124.05 1084.12,123.50 1083.05,122.44 C1075.65,115.10 1054.88,104.03 1045.50,102.45 C1044.40,102.26 1042.38,101.84 1041.00,101.51 C1036.85,100.51 1032.60,99.82 1030.75,99.85 C1029.79,99.86 1029.00,99.53 1029.00,99.11 C1029.00,98.40 1022.57,97.75 1015.50,97.75 C1008.43,97.75 1002.00,98.40 1002.00,99.11 C1002.00,99.53 1001.21,99.89 1000.25,99.90 C993.80,99.99 980.00,103.50 980.00,105.04 C980.00,105.53 979.38,105.70 978.63,105.41 C977.87,105.12 976.58,105.56 975.75,106.39 C974.92,107.23 974.00,107.67 973.72,107.39 C973.21,106.87 962.98,111.67 962.00,112.88 C961.72,113.22 959.70,114.40 957.50,115.50 C955.30,116.59 952.23,118.73 950.67,120.25 C949.12,121.76 947.30,123.00 946.63,123.00 C944.81,123.00 937.83,130.49 938.73,131.47 C939.15,131.94 938.99,132.03 938.36,131.67 C937.05,130.92 930.00,138.29 930.00,140.40 C930.00,141.16 929.39,142.02 928.64,142.31 C927.20,142.86 925.65,145.44 918.64,159.00 C914.49,167.01 908.41,184.80 908.13,189.75 C907.85,194.55 907.54,196.00 906.79,196.00 C906.35,196.00 906.00,196.68 906.00,197.50 C906.00,198.32 906.34,199.00 906.75,199.00 C907.16,199.00 907.57,202.94 907.66,207.75 C907.75,212.56 907.92,219.20 908.05,222.50 C908.30,228.76 908.02,230.39 904.90,240.85 C903.86,244.34 903.23,247.56 903.51,248.01 C903.79,248.46 903.63,248.98 903.16,249.16 C902.69,249.35 901.06,252.65 899.54,256.50 C898.02,260.35 896.46,263.95 896.07,264.50 C895.68,265.05 894.76,267.39 894.04,269.70 C892.06,275.99 893.29,282.67 897.17,286.67 C898.90,288.46 900.70,289.69 901.16,289.40 C901.62,289.12 902.00,289.41 902.00,290.05 C902.00,290.79 903.12,291.06 905.00,290.79 C906.65,290.54 908.00,290.69 908.00,291.11 C908.00,291.52 908.88,292.14 909.95,292.48 C911.18,292.87 912.66,295.20 913.97,298.80 C917.19,307.66 919.23,312.00 920.15,312.00 C920.62,312.00 921.00,312.69 921.00,313.53 C921.00,315.92 925.91,325.03 927.54,325.65 C928.34,325.96 929.00,326.82 929.00,327.56 C929.00,328.30 929.62,329.26 930.37,329.70 C932.39,330.87 943.89,341.05 946.81,344.25 C948.20,345.76 949.93,347.00 950.65,347.00 C951.38,347.00 953.07,348.69 954.40,350.75 C955.73,352.81 958.01,355.74 959.45,357.25 C960.90,358.76 961.82,360.00 961.51,360.00 C961.19,360.00 961.39,360.86 961.96,361.92 C962.52,362.98 963.26,365.56 963.59,367.67 C963.92,369.78 964.65,372.06 965.22,372.75 C965.94,373.62 965.83,374.50 964.87,375.65 C963.78,376.97 963.44,384.74 963.19,414.15 L 962.89 451.00 L 958.69 451.16 C956.39,451.24 952.06,451.35 949.08,451.41 C945.71,451.46 943.51,451.97 943.25,452.75 C943.02,453.44 942.20,454.00 941.42,454.00 C940.64,454.00 940.00,454.34 940.00,454.76 C940.00,455.18 937.07,455.57 933.49,455.62 C929.21,455.68 926.38,456.23 925.24,457.23 C924.28,458.06 921.70,459.05 919.50,459.43 C915.45,460.12 904.78,464.87 904.16,466.26 C903.98,466.67 903.42,466.76 902.91,466.45 C902.41,466.14 902.00,466.36 902.00,466.94 C902.00,467.52 901.66,467.91 901.25,467.80 C899.77,467.41 895.36,469.34 887.50,473.84 C880.40,477.90 876.62,480.48 866.84,487.97 C863.62,490.43 860.76,490.55 857.41,488.35 C854.23,486.27 852.32,482.50 845.42,464.75 C837.11,443.33 834.79,438.00 833.79,438.00 C833.29,438.00 833.17,437.53 833.52,436.96 C833.87,436.39 832.11,431.71 829.60,426.55 C824.78,416.64 823.31,415.06 813.21,408.97 L 809.93 406.99 L 810.04 391.24 C810.10,382.58 809.86,374.75 809.50,373.83 C809.14,372.91 806.29,370.89 803.17,369.33 L 797.50 366.50 L 738.00 366.20 C696.55,365.99 677.29,366.23 674.50,367.01 C669.06,368.52 662.19,372.15 661.29,373.99 C659.98,376.70 659.72,459.92 661.02,463.06 C661.64,464.55 662.08,465.68 662.82,466.54 C665.15,469.19 670.54,469.17 694.13,469.06 L 695.96 469.05 C722.65,468.94 726.38,469.11 728.93,470.62 C730.78,471.71 731.61,472.86 731.24,473.82 C730.83,474.88 731.05,475.09 731.98,474.51 C732.85,473.98 733.07,474.08 732.62,474.80 C731.85,476.05 738.25,489.42 740.20,490.62 C742.99,492.35 753.63,489.83 752.34,487.74 C751.92,487.07 752.71,486.95 754.60,487.40 C757.89,488.17 758.11,488.18 763.29,487.63 C767.05,487.22 771.00,484.05 771.00,481.44 C771.00,480.74 771.79,480.30 772.75,480.45 C773.71,480.60 775.50,480.35 776.72,479.90 C778.72,479.16 779.05,479.50 780.01,483.29 C782.51,493.21 791.51,512.56 794.89,515.29 C796.11,516.28 796.23,516.23 795.55,515.00 C795.09,514.17 796.51,515.33 798.72,517.57 C800.92,519.80 806.38,523.53 810.85,525.86 C822.14,531.74 822.95,533.63 817.85,542.21 C816.12,545.12 812.48,552.00 809.77,557.50 C807.06,563.00 804.20,568.78 803.42,570.33 C802.64,571.89 801.71,575.04 801.37,577.33 C801.02,579.63 799.95,582.40 798.99,583.50 C798.03,584.60 796.72,587.16 796.07,589.19 C795.42,591.21 794.44,593.02 793.89,593.20 C793.33,593.39 792.75,595.47 792.58,597.84 C792.41,600.25 791.33,603.41 790.14,605.03 C788.76,606.89 788.00,609.40 788.00,612.06 C788.00,615.40 787.40,616.76 784.88,619.11 L 781.76 622.03 L 710.83 621.50 L 706.57 610.50 C702.01,598.76 690.47,568.27 686.97,558.75 C685.81,555.59 684.41,553.00 683.87,553.00 C683.33,553.00 683.13,552.60 683.44,552.10 C684.07,551.07 676.99,531.67 675.79,531.17 C675.36,530.98 675.00,530.06 675.00,529.11 C675.00,527.39 669.87,512.62 668.11,509.26 C667.14,507.41 657.92,483.05 654.96,474.50 C649.62,459.10 639.55,439.60 628.63,423.50 C618.73,408.91 587.79,379.00 582.60,379.00 C581.66,379.00 581.11,378.63 581.39,378.18 C582.01,377.18 569.60,369.92 566.93,369.72 C565.87,369.64 565.00,369.25 565.00,368.86 C565.00,367.28 535.00,357.00 530.38,357.00 C529.00,357.00 526.89,356.48 525.69,355.84 C524.50,355.20 521.94,354.49 520.01,354.27 C518.08,354.04 513.81,353.55 510.52,353.18 L 504.53 352.50 L 503.82 348.50 C503.43,346.30 503.09,330.13 503.06,312.56 C503.00,282.97 503.13,280.48 504.83,278.56 C505.84,277.43 507.43,274.43 508.36,271.90 C510.33,266.55 515.67,259.98 521.44,255.80 C535.33,245.75 544.00,234.26 549.60,218.48 C552.43,210.52 552.79,210.13 557.60,209.57 C559.19,209.38 560.80,209.18 561.16,209.11 C561.53,209.05 563.44,207.43 565.41,205.52 C568.66,202.37 569.00,201.52 569.00,196.62 C569.00,192.27 567.92,188.70 563.45,178.35 C558.84,167.67 558.02,164.91 558.59,162.00 C560.10,154.26 559.22,123.78 557.40,120.84 C557.10,120.36 556.64,118.76 556.37,117.28 C554.59,107.46 543.07,86.79 535.64,80.08 C530.78,75.69 523.82,68.20 523.96,67.52 C524.33,65.80 509.93,56.96 505.79,56.36 C503.98,56.10 501.80,55.07 500.94,54.07 C498.22,50.90 487.85,46.65 480.00,45.50 C478.08,45.22 475.15,44.75 473.50,44.47 C471.85,44.19 469.71,43.87 468.75,43.77 C467.79,43.66 467.00,43.22 467.00,42.79 C467.00,42.35 462.73,42.00 457.50,42.00 C452.25,42.00 448.00,42.42 448.00,42.94 C448.00,43.45 447.21,43.88 446.25,43.88 C444.63,43.88 441.16,44.37 435.00,45.45 C426.04,47.03 414.88,51.00 415.70,52.32 C416.04,52.87 415.80,52.99 415.15,52.60 C413.96,51.86 402.00,57.70 402.00,59.03 C402.00,59.44 400.98,60.04 399.73,60.35 C398.48,60.67 396.12,62.21 394.48,63.79 C392.84,65.37 390.06,67.49 388.30,68.51 C386.55,69.53 385.31,70.70 385.57,71.11 C385.82,71.51 384.00,73.51 381.52,75.53 C371.09,84.09 353.78,116.84 352.54,130.39 C351.13,145.87 350.84,156.78 351.83,157.39 C353.01,158.13 352.28,161.01 350.57,162.33 C349.83,162.90 349.88,163.31 350.75,163.66 C352.40,164.33 352.47,185.73 350.84,189.68 C350.20,191.23 349.52,194.30 349.34,196.50 C348.81,202.80 348.43,204.91 347.69,205.65 C347.31,206.02 347.00,206.96 347.00,207.74 C347.00,211.26 339.99,225.36 332.91,236.08 C322.07,252.48 321.89,252.91 321.84,261.82 C321.79,270.11 322.44,273.81 324.78,278.50 C327.30,283.57 338.07,292.56 340.71,291.80 C341.14,291.68 342.45,292.10 343.62,292.75 C344.78,293.40 346.02,293.65 346.37,293.30 C346.72,292.95 347.00,293.19 347.00,293.83 C347.00,294.69 353.76,295.00 372.61,295.00 C396.61,295.00 398.17,295.11 397.47,296.75 C397.05,297.71 396.49,299.85 396.22,301.50 C395.95,303.15 395.39,304.73 394.99,305.00 C394.59,305.27 392.57,308.88 390.51,313.00 C377.03,339.97 366.38,351.78 354.00,353.50 C344.83,354.77 324.00,362.18 324.00,364.17 C324.00,364.69 323.55,364.84 323.00,364.50 C322.45,364.16 322.00,364.36 322.00,364.94 C322.00,365.52 321.66,365.89 321.25,365.76 C319.91,365.34 314.00,368.21 314.00,369.29 C314.00,369.86 313.71,370.04 313.35,369.68 C312.13,368.46 292.68,380.47 286.58,386.20 C278.84,393.50 267.32,404.93 265.51,407.10 C259.17,414.75 255.89,419.30 251.88,426.00 C245.17,437.19 237.31,454.65 238.47,455.80 C238.76,456.10 238.37,457.05 237.60,457.92 C236.08,459.62 234.42,465.08 233.47,471.50 C233.15,473.70 232.61,476.40 232.27,477.50 C231.57,479.75 231.44,480.48 230.52,487.50 C229.63,494.29 229.76,498.16 230.92,499.32 C231.76,500.16 232.29,499.20 232.85,494.98 C232.34,504.50 232.00,530.91 232.00,562.96 L 232.00 566.83 C232.00,535.39 231.78,509.88 231.52,510.15 C231.25,510.42 231.01,535.69 230.98,566.32 L 230.94 622.00 L 188.97 622.00 L 186.94 622.00 C153.59,622.00 147.69,622.00 146.92,623.99 C146.75,624.42 146.82,624.94 146.90,625.57 C146.91,625.63 146.92,625.69 146.93,625.75 C147.01,626.44 146.62,627.00 146.04,627.00 C145.41,627.00 145.00,630.11 145.00,635.00 C145.00,639.67 145.42,643.00 146.00,643.00 C146.55,643.00 147.00,643.48 147.00,644.07 C147.00,644.23 146.98,644.39 146.96,644.54 C146.93,644.74 146.91,644.94 146.94,645.12 C147.49,648.01 163.15,648.01 424.68,648.00 C436.56,648.00 448.95,648.00 461.87,648.00 C696.20,648.00 774.06,648.29 774.59,649.15 C774.99,649.79 774.54,650.86 773.60,651.55 C772.66,652.24 771.45,654.40 770.91,656.36 C770.37,658.33 769.25,660.61 768.43,661.43 C767.61,662.25 766.82,664.67 766.69,666.79 C766.56,668.92 765.71,671.80 764.80,673.19 C763.89,674.57 762.83,677.46 762.44,679.60 C762.06,681.75 761.35,683.99 760.88,684.59 C760.41,685.18 759.33,687.64 758.49,690.04 C757.64,692.44 756.28,695.14 755.47,696.03 C754.66,696.93 753.81,699.57 753.58,701.91 C753.36,704.24 752.54,706.90 751.77,707.82 C751.00,708.75 750.24,711.29 750.09,713.47 C749.92,715.88 748.87,718.56 747.40,720.30 C746.08,721.87 745.00,724.36 745.00,725.84 C745.00,727.35 744.20,729.02 743.17,729.66 C741.91,730.45 741.28,732.15 741.17,735.09 C741.06,737.81 740.27,740.15 739.00,741.50 C737.66,742.93 737.00,745.01 737.00,747.81 C737.00,750.12 736.66,752.00 736.25,752.01 C735.15,752.02 732.00,757.88 732.00,759.93 C732.00,760.90 731.11,762.72 730.02,763.98 C728.93,765.23 728.28,766.65 728.58,767.13 C728.88,767.62 847.50,768.00 1000.56,768.00 L 0.00 768.00 ZM 237.35 468.93 C238.63,463.97 240.09,459.06 241.55,455.00 C245.20,444.88 250.05,435.05 255.89,425.79 C247.67,439.00 241.39,453.55 237.35,468.93 ZM 1203.00 479.70 C1203.00,480.46 1202.15,479.74 1198.95,476.25 L 1195.50 472.50 L 1199.25 475.95 C1201.31,477.84 1203.00,479.53 1203.00,479.70 ZM 233.78 486.53 C234.14,483.72 234.74,480.38 235.49,476.84 C234.82,480.04 234.25,483.27 233.78,486.53 Z" fill="none" class="illustration-background"/>
<path class="illustration-colorizable-secondary" d="M 786.33 624.75 C786.27,624.65 785.26,624.56 783.46,624.48 L 786.98 624.50 L 788.47 620.77 C789.29,618.72 794.08,606.12 799.10,592.77 C808.32,568.28 814.95,553.77 822.11,542.45 L 826.01 536.27 L 824.73 533.38 C825.27,534.32 825.76,534.89 826.02,534.79 C826.45,534.63 830.05,530.28 834.03,525.12 C838.01,519.96 845.80,511.27 851.34,505.81 L 861.41 495.89 L 857.72 492.74 L 861.87 496.14 L 869.69 490.25 C895.64,470.70 921.95,459.69 953.80,455.03 C960.56,454.05 966.41,452.92 966.80,452.53 C967.18,452.14 967.49,432.40 967.47,408.66 L 967.45 377.63 C967.59,378.01 967.77,378.33 968.01,378.60 C969.28,380.01 972.12,380.01 978.48,380.01 C978.92,380.01 979.38,380.01 979.86,380.01 C986.26,380.02 993.19,380.30 995.25,380.64 L 998.97 381.26 C999.00,399.25 999.00,421.94 999.00,450.66 L 999.00 587.00 L 1132.00 587.00 C1262.68,587.00 1264.97,586.99 1265.00,585.07 C1265.45,586.94 1265.86,588.81 1266.24,590.69 C1268.38,601.22 1268.45,603.64 1268.76,684.75 C1269.03,756.98 1269.27,768.00 1270.54,768.00 C1271.81,768.00 1272.01,758.55 1272.11,696.79 L 1272.00 768.00 L 1000.56 768.00 C862.67,768.00 752.75,767.69 732.08,767.27 C734.22,764.80 738.99,752.69 756.17,707.00 C768.68,673.72 778.93,646.16 778.96,645.75 C778.96,645.34 637.46,645.00 464.50,645.00 L 779.10 645.00 L 779.31 644.50 L 779.45 644.50 L 781.50 639.18 C782.36,637.01 783.48,634.11 784.42,631.62 L 786.91 625.00 L 786.36 625.00 C786.36,624.88 786.36,624.79 786.33,624.75 ZM 1231.61 516.34 C1226.09,509.05 1219.71,501.52 1212.13,493.28 C1217.72,499.31 1222.68,504.89 1225.18,508.00 C1227.41,510.78 1229.55,513.56 1231.61,516.34 ZM 1260.97 571.07 C1258.40,563.96 1255.01,555.65 1252.03,549.50 C1251.68,548.78 1251.33,548.07 1250.97,547.36 C1254.96,555.20 1258.29,563.09 1260.97,571.07 ZM 849.12 481.80 C846.88,477.08 843.85,469.49 838.49,456.00 C837.23,452.85 836.09,449.97 835.03,447.35 C836.20,450.26 837.49,453.47 838.90,457.03 C842.92,467.14 846.85,476.65 849.12,481.80 ZM 965.37 361.03 L 964.76 359.72 C963.39,356.76 961.91,354.18 960.05,351.70 C962.50,354.83 964.24,357.89 965.37,361.03 ZM 518.75 62.91 C514.21,59.98 508.09,56.69 505.79,56.36 C508.24,56.72 514.29,59.96 518.75,62.91 ZM 855.90 491.18 C854.61,490.06 853.60,489.10 852.61,487.83 C853.56,488.91 854.73,490.10 855.90,491.18 ZM 714.63 624.00 L 708.14 624.00 L 708.13 623.96 ZM 823.21 530.10 C822.30,528.44 821.27,527.38 819.06,526.05 C821.39,527.45 822.41,528.51 823.21,530.10 ZM 728.59 767.13 C728.58,767.13 728.58,767.13 728.58,767.13 C728.28,766.65 728.93,765.23 730.02,763.98 C728.97,765.19 728.34,766.58 728.59,767.13 Z" fill="rgb(248,84,39)"/>
<path d="M 732.34 467.50 L 732.21 467.50 L 731.97 467.00 L 700.62 467.00 C670.42,467.00 669.17,466.92 666.63,464.93 L 664.00 462.85 L 664.00 375.91 L 666.45 373.45 L 668.91 371.00 L 802.37 371.00 L 804.69 373.17 C806.93,375.28 807.00,375.88 807.00,392.13 L 807.00 408.92 L 811.75 411.62 C815.60,413.81 818.28,415.50 820.73,418.28 C820.44,417.98 820.14,417.69 819.84,417.41 C816.41,414.25 809.61,410.00 807.96,410.00 C807.44,410.00 806.92,418.73 806.77,430.19 L 806.50 450.38 L 802.00 443.48 C795.45,433.44 794.04,432.85 774.21,431.78 C756.16,430.81 752.43,431.42 751.41,435.52 C750.36,439.68 755.12,446.14 761.50,449.21 C763.15,450.00 767.42,451.48 771.00,452.50 C774.58,453.51 777.78,454.60 778.12,454.92 C778.46,455.24 779.03,458.08 779.38,461.23 L 780.01 466.96 L 771.34 467.06 C767.83,467.00 762.91,467.00 755.99,467.00 L 732.12 467.00 ZM 831.94 439.76 C833.89,444.46 836.15,450.10 838.87,456.94 C837.47,453.43 836.20,450.26 835.04,447.38 L 835.03 447.35 C833.90,444.55 832.88,442.03 831.94,439.76 Z" fill="rgb(254,149,124)"/>
<path d="M 406.45 281.42 C411.76,263.72 423.93,241.01 437.63,223.23 L 444.00 214.97 L 444.00 197.73 C444.00,178.35 444.78,175.36 450.86,171.29 C460.13,165.11 472.78,168.76 476.02,178.55 C476.64,180.45 477.38,182.00 477.66,182.00 C477.93,182.00 482.06,178.68 486.83,174.63 C504.64,159.48 521.21,140.39 529.66,125.28 C532.87,119.54 533.48,118.93 534.56,120.41 C535.23,121.33 539.77,131.28 544.64,142.52 C549.51,153.75 553.79,162.96 554.14,162.97 C554.42,162.98 554.66,162.85 554.89,162.54 C554.18,164.59 555.05,167.09 560.03,178.50 C563.40,186.20 566.20,193.94 566.27,195.70 C566.52,202.24 562.75,205.88 554.65,206.88 L 549.70 207.50 L 547.02 215.50 C541.23,232.79 537.87,237.29 516.23,256.78 C507.85,264.32 504.37,269.69 503.33,276.67 C502.76,280.49 502.76,280.49 504.72,278.50 C505.52,277.68 506.64,275.83 507.54,273.89 C506.66,275.84 505.58,277.72 504.83,278.56 C503.13,280.48 503.00,282.97 503.06,312.56 C503.09,330.13 503.43,346.30 503.82,348.50 L 504.16 350.42 C504.07,350.03 503.98,349.56 503.88,349.00 C503.33,345.85 503.25,346.01 503.13,350.60 L 503.00 355.70 L 511.25 356.31 C513.74,356.49 516.73,356.93 520.03,357.58 C508.95,355.99 492.09,355.99 442.74,355.97 C440.26,355.96 437.69,355.96 435.03,355.96 L 357.16 355.93 C364.26,353.77 366.95,351.68 372.29,346.11 C380.08,337.99 385.28,330.40 391.50,318.00 C396.28,308.49 403.00,293.20 403.00,291.84 C403.00,291.54 395.63,291.20 385.22,290.98 L 403.57 291.00 ZM 346.16 289.92 C343.82,289.59 342.55,289.11 341.00,288.38 C338.47,287.18 336.19,285.64 334.19,283.82 C336.77,286.11 339.80,287.93 343.22,289.11 C344.16,289.43 345.08,289.70 346.16,289.92 ZM 330.50 364.33 C319.51,369.04 307.04,375.49 299.00,380.89 C307.47,375.20 319.60,368.93 330.50,364.33 ZM 554.13 367.58 C560.82,370.08 566.99,372.73 571.73,375.24 C567.18,372.90 560.80,370.13 554.13,367.58 ZM 231.66 499.51 C232.10,498.89 232.51,497.27 232.87,494.71 C232.86,494.80 232.86,494.89 232.85,494.98 C232.48,497.80 232.11,499.17 231.66,499.51 ZM 556.63 150.74 C556.67,149.85 556.72,148.90 556.76,147.89 C558.34,109.45 536.47,73.66 500.95,56.56 C536.47,73.65 558.31,109.40 556.77,147.89 C556.73,148.84 556.68,149.80 556.63,150.74 ZM 237.35 468.93 L 237.31 469.10 C238.59,464.10 240.06,459.16 241.55,455.00 C240.09,459.06 238.63,463.97 237.35,468.93 ZM 230.52 487.50 C230.92,484.43 231.17,482.56 231.39,481.24 C231.17,482.56 230.92,484.43 230.52,487.50 C230.44,488.12 230.37,488.70 230.30,489.25 C230.37,488.69 230.44,488.11 230.52,487.50 ZM 509.29 353.04 L 510.52 353.18 C513.81,353.55 518.08,354.04 520.01,354.27 C518.08,354.04 513.80,353.55 510.50,353.18 C510.07,353.13 509.66,353.09 509.29,353.04 Z" fill="rgb(254,182,149)"/>
<path d="M 728.62 767.19 C728.30,766.68 728.93,765.23 730.02,763.98 C731.11,762.72 732.00,760.90 732.00,759.93 C732.00,757.88 735.15,752.02 736.25,752.01 C736.66,752.00 737.00,750.12 737.00,747.81 C737.00,745.01 737.66,742.93 739.00,741.50 C740.27,740.15 741.06,737.81 741.17,735.09 C741.28,732.15 741.91,730.45 743.17,729.66 C744.20,729.02 745.00,727.35 745.00,725.84 C745.00,724.36 746.08,721.87 747.40,720.30 C748.87,718.56 749.92,715.88 750.09,713.47 C750.24,711.29 751.00,708.75 751.77,707.82 C752.54,706.90 753.36,704.24 753.58,701.91 C753.81,699.57 754.66,696.93 755.47,696.03 C756.28,695.14 757.64,692.44 758.49,690.04 C759.33,687.64 760.41,685.18 760.88,684.59 C761.35,683.99 762.06,681.75 762.44,679.60 C762.83,677.46 763.89,674.57 764.80,673.19 C765.71,671.80 766.56,668.92 766.69,666.79 C766.82,664.67 767.61,662.25 768.43,661.43 C769.25,660.61 770.37,658.33 770.91,656.36 C771.45,654.40 772.66,652.24 773.60,651.55 C774.54,650.86 774.99,649.79 774.59,649.15 C774.06,648.29 696.20,648.00 461.87,648.00 C133.58,648.00 147.00,648.17 147.00,644.07 C147.00,643.48 146.55,643.00 146.00,643.00 C145.42,643.00 145.00,639.67 145.00,635.00 C145.00,630.11 145.41,627.00 146.04,627.00 C146.62,627.00 147.01,626.44 146.93,625.75 C146.43,621.94 145.74,622.00 188.97,622.00 L 230.94 622.00 L 230.98 566.32 C231.01,535.69 231.25,510.42 231.52,510.15 C231.78,509.88 232.00,535.39 232.00,566.83 L 232.00 624.00 L 191.00 624.00 L 150.00 624.00 L 150.00 634.50 L 150.00 645.00 L 464.50 645.00 C637.47,645.00 778.98,645.34 778.96,645.75 C778.93,646.16 768.68,673.72 756.17,707.00 C736.57,759.11 733.13,767.54 731.30,767.81 C730.14,767.98 728.93,767.70 728.62,767.19 ZM 1268.76 684.75 C1268.45,603.64 1268.38,601.22 1266.24,590.69 C1260.47,562.27 1247.08,535.29 1225.18,508.00 C1220.99,502.77 1209.86,490.62 1200.46,481.00 C1173.08,452.98 1158.21,431.12 1145.11,399.64 C1140.40,388.33 1135.70,373.99 1133.53,364.34 C1129.16,344.92 1128.77,339.00 1127.97,280.50 C1127.05,212.50 1126.73,209.50 1117.34,179.00 C1111.07,158.63 1102.23,144.08 1087.82,130.42 C1078.46,121.55 1073.46,118.10 1061.77,112.46 C1020.79,92.70 970.21,102.14 939.30,135.32 C918.56,157.57 907.26,190.41 911.60,215.79 C912.85,223.09 912.84,224.88 911.49,230.79 C909.34,240.18 904.40,254.89 899.85,265.42 C897.73,270.33 896.00,275.50 896.00,276.92 C896.01,283.08 902.91,288.98 910.15,289.02 C914.72,289.04 915.45,289.73 916.96,295.50 C918.93,303.03 926.54,318.72 931.08,324.61 C933.30,327.48 939.57,333.28 945.01,337.51 C956.32,346.28 960.95,351.49 964.76,359.72 L 967.44 365.50 L 967.47 408.66 C967.49,432.40 967.18,452.14 966.80,452.53 C966.41,452.92 960.56,454.05 953.80,455.03 C921.95,459.69 895.64,470.70 869.69,490.25 L 861.87 496.14 L 857.33 492.41 C854.83,490.36 851.94,487.31 850.92,485.62 C849.89,483.94 844.48,471.07 838.90,457.03 C824.25,420.17 822.94,417.99 811.75,411.62 L 807.00 408.92 L 807.00 392.13 C807.00,375.88 806.93,375.28 804.69,373.17 L 802.37 371.00 L 735.64 371.00 L 668.91 371.00 L 666.45 373.45 L 664.00 375.91 L 664.00 419.38 L 664.00 462.85 L 666.63 464.93 C669.17,466.92 670.42,467.00 700.62,467.00 L 731.97 467.00 L 736.96 477.43 C740.32,484.44 742.63,488.07 744.03,488.51 C747.12,489.49 750.75,486.58 752.12,482.01 L 753.31 478.01 L 756.74 482.00 C758.62,484.20 760.74,486.00 761.44,486.00 C764.03,486.00 767.78,481.98 768.43,478.52 C769.08,475.05 770.30,474.05 771.50,476.00 C772.69,477.92 776.84,477.01 778.91,474.38 C780.34,472.57 781.10,472.18 781.38,473.13 C781.60,473.88 782.76,478.33 783.96,483.00 C785.15,487.67 788.11,495.60 790.53,500.62 C795.87,511.71 801.42,517.13 813.65,523.19 C821.23,526.94 822.26,527.80 824.04,531.82 L 826.01 536.27 L 822.11 542.45 C814.95,553.77 808.32,568.28 799.10,592.77 C794.08,606.12 789.29,618.72 788.47,620.77 L 786.98 624.50 L 747.56 624.23 L 708.13 623.96 L 706.17 618.73 C652.99,476.77 641.23,448.07 628.44,429.00 C613.95,407.40 594.81,388.87 574.50,376.79 C560.32,368.36 526.58,357.43 511.25,356.31 L 503.00 355.70 L 503.13 350.60 C503.25,346.01 503.33,345.85 503.88,349.00 C504.49,352.44 504.60,352.51 510.50,353.18 C513.80,353.55 518.08,354.04 520.01,354.27 C521.94,354.49 524.50,355.20 525.69,355.84 C526.89,356.48 529.00,357.00 530.38,357.00 C535.00,357.00 565.00,367.28 565.00,368.86 C565.00,369.25 565.87,369.64 566.93,369.72 C569.60,369.92 582.01,377.18 581.39,378.18 C581.11,378.63 581.66,379.00 582.60,379.00 C587.79,379.00 618.73,408.91 628.63,423.50 C639.55,439.60 649.62,459.10 654.96,474.50 C657.92,483.05 667.14,507.41 668.11,509.26 C669.87,512.62 675.00,527.39 675.00,529.11 C675.00,530.06 675.36,530.98 675.79,531.17 C676.99,531.67 684.07,551.07 683.44,552.10 C683.13,552.60 683.33,553.00 683.87,553.00 C684.41,553.00 685.81,555.59 686.97,558.75 C690.47,568.27 702.01,598.76 706.57,610.50 L 710.83 621.50 L 746.30 621.76 L 781.76 622.03 L 784.88 619.11 C787.40,616.76 788.00,615.40 788.00,612.06 C788.00,609.40 788.76,606.89 790.14,605.03 C791.33,603.41 792.41,600.25 792.58,597.84 C792.75,595.47 793.33,593.39 793.89,593.20 C794.44,593.02 795.42,591.21 796.07,589.19 C796.72,587.16 798.03,584.60 798.99,583.50 C799.95,582.40 801.02,579.63 801.37,577.33 C801.71,575.04 802.64,571.89 803.42,570.33 C804.20,568.78 807.06,563.00 809.77,557.50 C812.48,552.00 816.12,545.12 817.85,542.21 C822.95,533.63 822.14,531.74 810.85,525.86 C806.38,523.53 800.92,519.80 798.72,517.57 C796.51,515.33 795.09,514.17 795.55,515.00 C796.23,516.23 796.11,516.28 794.89,515.29 C791.51,512.56 782.51,493.21 780.01,483.29 C779.05,479.50 778.72,479.16 776.72,479.90 C775.50,480.35 773.71,480.60 772.75,480.45 C771.79,480.30 771.00,480.74 771.00,481.44 C771.00,484.05 767.05,487.22 763.29,487.63 C758.11,488.18 757.89,488.17 754.60,487.40 C752.71,486.95 751.92,487.07 752.34,487.74 C753.63,489.83 742.99,492.35 740.20,490.62 C738.25,489.42 731.85,476.05 732.62,474.80 C733.07,474.08 732.85,473.98 731.98,474.51 C731.05,475.09 730.83,474.88 731.24,473.82 C731.61,472.86 730.78,471.71 728.93,470.62 C726.38,469.11 722.65,468.94 695.96,469.05 C662.93,469.20 663.62,469.32 661.02,463.06 C659.72,459.92 659.98,376.70 661.29,373.99 C662.19,372.15 669.06,368.52 674.50,367.01 C677.29,366.23 696.55,365.99 738.00,366.20 L 797.50 366.50 L 803.17 369.33 C806.29,370.89 809.14,372.91 809.50,373.83 C809.86,374.75 810.10,382.58 810.04,391.24 L 809.93 406.99 L 813.21 408.97 C823.31,415.06 824.78,416.64 829.60,426.55 C832.11,431.71 833.87,436.39 833.52,436.96 C833.17,437.53 833.29,438.00 833.79,438.00 C834.79,438.00 837.11,443.33 845.42,464.75 C852.32,482.50 854.23,486.27 857.41,488.35 C860.76,490.55 863.62,490.43 866.84,487.97 C876.62,480.48 880.40,477.90 887.50,473.84 C895.36,469.34 899.77,467.41 901.25,467.80 C901.66,467.91 902.00,467.52 902.00,466.94 C902.00,466.36 902.41,466.14 902.91,466.45 C903.42,466.76 903.98,466.67 904.16,466.26 C904.78,464.87 915.45,460.12 919.50,459.43 C921.70,459.05 924.28,458.06 925.24,457.23 C926.38,456.23 929.21,455.68 933.49,455.62 C937.07,455.57 940.00,455.18 940.00,454.76 C940.00,454.34 940.64,454.00 941.42,454.00 C942.20,454.00 943.02,453.44 943.25,452.75 C943.51,451.97 945.71,451.46 949.08,451.41 C952.06,451.35 956.39,451.24 958.69,451.16 L 962.89 451.00 L 963.19 414.15 C963.44,384.74 963.78,376.97 964.87,375.65 C965.83,374.50 965.94,373.62 965.22,372.75 C964.65,372.06 963.92,369.78 963.59,367.67 C963.26,365.56 962.52,362.98 961.96,361.92 C961.39,360.86 961.19,360.00 961.51,360.00 C961.82,360.00 960.90,358.76 959.45,357.25 C958.01,355.74 955.73,352.81 954.40,350.75 C953.07,348.69 951.38,347.00 950.65,347.00 C949.93,347.00 948.20,345.76 946.81,344.25 C943.89,341.05 932.39,330.87 930.37,329.70 C929.62,329.26 929.00,328.30 929.00,327.56 C929.00,326.82 928.34,325.96 927.54,325.65 C925.91,325.03 921.00,315.92 921.00,313.53 C921.00,312.69 920.62,312.00 920.15,312.00 C919.23,312.00 917.19,307.66 913.97,298.80 C912.66,295.20 911.18,292.87 909.95,292.48 C908.88,292.14 908.00,291.52 908.00,291.11 C908.00,290.69 906.65,290.54 905.00,290.79 C903.12,291.06 902.00,290.79 902.00,290.05 C902.00,289.41 901.62,289.12 901.16,289.40 C900.70,289.69 898.90,288.46 897.17,286.67 C893.29,282.67 892.06,275.99 894.04,269.70 C894.76,267.39 895.68,265.05 896.07,264.50 C896.46,263.95 898.02,260.35 899.54,256.50 C901.06,252.65 902.69,249.35 903.16,249.16 C903.63,248.98 903.79,248.46 903.51,248.01 C903.23,247.56 903.86,244.34 904.90,240.85 C908.02,230.39 908.30,228.76 908.05,222.50 C907.92,219.20 907.75,212.56 907.66,207.75 C907.57,202.94 907.16,199.00 906.75,199.00 C906.34,199.00 906.00,198.32 906.00,197.50 C906.00,196.68 906.35,196.00 906.79,196.00 C907.54,196.00 907.85,194.55 908.13,189.75 C908.41,184.80 914.49,167.01 918.64,159.00 C925.65,145.44 927.20,142.86 928.64,142.31 C929.39,142.02 930.00,141.16 930.00,140.40 C930.00,138.29 937.05,130.92 938.36,131.67 C938.99,132.03 939.15,131.94 938.73,131.47 C937.83,130.49 944.81,123.00 946.63,123.00 C947.30,123.00 949.12,121.76 950.67,120.25 C952.23,118.73 955.30,116.59 957.50,115.50 C959.70,114.40 961.72,113.22 962.00,112.88 C962.98,111.67 973.21,106.87 973.72,107.39 C974.00,107.67 974.92,107.23 975.75,106.39 C976.58,105.56 977.87,105.12 978.63,105.41 C979.38,105.70 980.00,105.53 980.00,105.04 C980.00,103.50 993.80,99.99 1000.25,99.90 C1001.21,99.89 1002.00,99.53 1002.00,99.11 C1002.00,98.40 1008.43,97.75 1015.50,97.75 C1022.57,97.75 1029.00,98.40 1029.00,99.11 C1029.00,99.53 1029.79,99.86 1030.75,99.85 C1032.60,99.82 1036.85,100.51 1041.00,101.51 C1042.38,101.84 1044.40,102.26 1045.50,102.45 C1054.88,104.03 1075.65,115.10 1083.05,122.44 C1084.12,123.50 1085.00,124.05 1085.00,123.66 C1085.00,121.74 1102.27,140.31 1105.87,146.08 C1110.53,153.57 1118.62,170.26 1119.40,174.00 C1119.69,175.38 1121.26,181.00 1122.89,186.50 C1124.52,192.00 1126.11,198.07 1126.42,200.00 C1126.72,201.93 1127.22,204.77 1127.52,206.33 C1127.82,207.89 1128.22,211.04 1128.41,213.33 C1128.86,218.74 1129.28,220.34 1130.48,221.20 C1131.09,221.64 1131.61,239.87 1131.85,269.07 C1132.16,307.15 1131.98,316.39 1130.93,317.05 C1129.90,317.68 1129.86,318.63 1130.72,321.43 C1131.32,323.39 1131.58,325.90 1131.29,327.00 C1131.00,328.10 1131.23,329.00 1131.81,329.00 C1132.44,329.00 1132.84,332.03 1132.82,336.75 C1132.78,345.95 1133.04,348.00 1134.21,348.00 C1134.70,348.00 1135.05,349.91 1134.99,352.25 C1134.89,356.39 1135.27,359.43 1136.40,363.50 C1136.70,364.60 1137.89,368.85 1139.04,372.96 C1146.48,399.58 1162.17,430.72 1178.25,450.78 C1180.31,453.36 1182.00,455.86 1182.00,456.34 C1182.00,456.82 1183.13,458.10 1184.51,459.19 C1185.89,460.27 1186.76,461.59 1186.44,462.10 C1186.11,462.62 1186.22,462.93 1186.68,462.79 C1187.13,462.65 1194.25,469.49 1202.50,477.99 C1210.75,486.49 1216.60,492.83 1215.50,492.07 C1214.40,491.31 1215.64,492.59 1218.26,494.93 C1220.87,497.26 1222.75,499.59 1222.43,500.11 C1222.11,500.63 1222.28,500.93 1222.81,500.77 C1223.93,500.46 1229.65,507.31 1230.50,510.00 C1230.82,511.00 1231.67,512.04 1232.39,512.32 C1233.11,512.60 1235.74,515.90 1238.23,519.66 C1240.73,523.42 1243.72,527.58 1244.88,528.90 C1246.05,530.22 1247.00,531.87 1247.00,532.55 C1247.00,533.24 1248.80,536.19 1251.00,539.12 C1253.20,542.05 1255.00,545.00 1255.00,545.68 C1255.00,546.35 1256.98,551.76 1259.41,557.70 C1265.27,572.08 1268.73,584.44 1268.52,590.27 C1268.41,593.05 1268.86,595.47 1269.58,596.07 C1272.30,598.32 1272.27,596.95 1272.11,696.75 C1272.01,758.54 1271.81,768.00 1270.54,768.00 C1269.27,768.00 1269.03,756.98 1268.76,684.75 ZM 1203.00 479.70 C1203.00,479.53 1201.31,477.84 1199.25,475.95 L 1195.50 472.50 L 1198.95 476.25 C1202.15,479.74 1203.00,480.46 1203.00,479.70 ZM 230.46 498.75 C229.65,496.64 229.66,494.09 230.52,487.50 C231.44,480.51 231.57,479.76 232.27,477.50 C232.61,476.40 233.15,473.70 233.47,471.50 C234.42,465.08 236.08,459.62 237.60,457.92 C238.37,457.05 238.76,456.10 238.47,455.80 C237.31,454.65 245.17,437.19 251.88,426.00 C255.89,419.30 259.17,414.75 265.51,407.10 C267.32,404.93 278.84,393.50 286.58,386.20 C292.68,380.47 312.13,368.46 313.35,369.68 C313.71,370.04 314.00,369.86 314.00,369.29 C314.00,368.21 319.91,365.34 321.25,365.76 C321.66,365.89 322.00,365.52 322.00,364.94 C322.00,364.36 322.45,364.16 323.00,364.50 C323.55,364.84 324.00,364.69 324.00,364.17 C324.00,362.18 344.83,354.77 354.00,353.50 C366.38,351.78 377.03,339.97 390.51,313.00 C392.57,308.88 394.59,305.27 394.99,305.00 C395.39,304.73 395.95,303.15 396.22,301.50 C396.49,299.85 397.05,297.71 397.47,296.75 C398.17,295.11 396.61,295.00 372.61,295.00 C353.76,295.00 347.00,294.69 347.00,293.83 C347.00,293.19 346.72,292.95 346.37,293.30 C346.02,293.65 344.78,293.40 343.62,292.75 C342.45,292.10 341.14,291.68 340.71,291.80 C338.07,292.56 327.30,283.57 324.78,278.50 C322.44,273.81 321.79,270.11 321.84,261.82 C321.89,252.91 322.07,252.48 332.91,236.08 C339.99,225.36 347.00,211.26 347.00,207.74 C347.00,206.96 347.31,206.02 347.69,205.65 C348.43,204.91 348.81,202.80 349.34,196.50 C349.52,194.30 350.20,191.23 350.84,189.68 C352.47,185.73 352.40,164.33 350.75,163.66 C349.88,163.31 349.83,162.90 350.57,162.33 C352.28,161.01 353.01,158.13 351.83,157.39 C350.84,156.78 351.13,145.87 352.54,130.39 C353.78,116.84 371.09,84.09 381.52,75.53 C384.00,73.51 385.82,71.51 385.57,71.11 C385.31,70.70 386.55,69.53 388.30,68.51 C390.06,67.49 392.84,65.37 394.48,63.79 C396.12,62.21 398.48,60.67 399.73,60.35 C400.98,60.04 402.00,59.44 402.00,59.03 C402.00,57.70 413.96,51.86 415.15,52.60 C415.80,52.99 416.04,52.87 415.70,52.32 C414.88,51.00 426.04,47.03 435.00,45.45 C441.16,44.37 444.63,43.88 446.25,43.88 C447.21,43.88 448.00,43.45 448.00,42.94 C448.00,42.42 452.25,42.00 457.50,42.00 C462.73,42.00 467.00,42.35 467.00,42.79 C467.00,43.22 467.79,43.66 468.75,43.77 C469.71,43.87 471.85,44.19 473.50,44.47 C475.15,44.75 478.08,45.22 480.00,45.50 C487.85,46.65 498.22,50.90 500.94,54.07 C501.80,55.07 503.98,56.10 505.79,56.36 C509.93,56.96 524.33,65.80 523.96,67.52 C523.82,68.20 530.78,75.69 535.64,80.08 C543.07,86.79 554.59,107.46 556.37,117.28 C556.64,118.76 557.10,120.36 557.40,120.84 C559.22,123.78 560.10,154.26 558.59,162.00 C558.02,164.91 558.84,167.67 563.45,178.35 C567.92,188.70 569.00,192.27 569.00,196.62 C569.00,201.52 568.66,202.37 565.41,205.52 C563.44,207.43 561.53,209.05 561.16,209.11 C560.80,209.18 559.19,209.38 557.60,209.57 C552.79,210.13 552.43,210.52 549.60,218.48 C544.00,234.26 535.33,245.75 521.44,255.80 C515.66,259.98 510.32,266.55 508.37,271.90 C507.44,274.43 505.80,277.40 504.72,278.50 C502.76,280.49 502.76,280.49 503.33,276.67 C504.37,269.69 507.85,264.32 516.23,256.78 C537.87,237.29 541.23,232.79 547.02,215.50 L 549.70 207.50 L 554.65 206.88 C562.75,205.88 566.52,202.24 566.27,195.70 C566.20,193.94 563.40,186.20 560.03,178.50 C554.61,166.08 554.05,164.22 555.11,162.00 C555.77,160.62 556.52,154.27 556.77,147.89 C558.31,109.40 536.47,73.65 500.95,56.56 C487.13,49.91 478.30,47.86 461.00,47.29 C449.08,46.90 444.79,47.16 436.88,48.80 C417.90,52.72 399.34,62.59 386.15,75.78 C372.52,89.41 360.66,111.11 356.31,130.38 C355.04,136.03 354.74,142.67 354.88,162.50 C355.16,202.68 352.29,213.72 334.81,239.78 C330.99,245.48 327.19,252.02 326.37,254.32 C321.75,267.29 328.21,282.34 341.00,288.38 C345.21,290.36 347.37,290.52 374.25,290.81 C390.06,290.97 403.00,291.44 403.00,291.84 C403.00,293.20 396.28,308.49 391.50,318.00 C385.28,330.40 380.08,337.99 372.29,346.11 C365.03,353.67 362.69,354.83 347.50,358.42 C335.14,361.34 312.46,371.85 299.00,380.89 C273.32,398.14 252.22,425.36 241.55,455.00 C237.78,465.49 234.18,480.90 233.40,489.89 C232.66,498.41 231.58,501.66 230.46,498.75 Z" fill="rgb(253,253,252)"/>
</g>
</svg>