<svg xmlns="http://www.w3.org/2000/svg" width="1365" height="768" viewBox="0 0 1365 768">
<g>
<path class="illustration-colorizable" d="M 1047.00 768.00 L 185.73 768.00 L 186.31 733.25 C186.91,696.41 188.27,680.82 193.49,650.50 C200.42,610.33 208.40,583.41 221.05,557.50 C245.06,508.32 287.30,465.78 336.69,441.06 L 346.79 436.00 L 434.29 436.00 C487.85,436.00 525.73,436.40 531.95,437.04 C551.61,439.06 568.82,444.97 587.57,456.13 C616.28,473.23 630.67,493.38 650.11,543.68 C655.09,556.54 729.00,766.32 729.00,767.57 C729.00,767.81 872.10,768.00 1047.00,768.00 Z" fill="rgb(28,42,102)"/>
<path class="illustration-colorizable-tertiary" d="M 1076.00 228.52 L 1076.00 378.00 L 973.00 378.00 C916.35,378.00 870.00,377.72 870.00,377.37 C870.00,377.03 872.92,366.68 876.50,354.39 C880.08,342.09 883.00,331.80 883.00,331.51 C883.00,331.23 866.80,331.00 847.00,331.00 L 811.00 331.00 L 811.00 274.00 L 1030.48 274.00 L 1053.24 251.26 Z" fill="rgb(76,76,77)"/>
<path class="illustration-colorizable-secondary" d="M 1076.00 228.52 L 1030.48 274.00 L 765.52 274.00 L 811.48 228.00 L 1077.00 228.00 L 1077.00 379.00 L 869.39 379.00 L 861.03 408.00 L 852.68 437.01 L 845.36 426.05 C841.33,420.02 837.16,414.62 836.09,414.05 C831.07,411.36 824.05,424.00 825.33,433.40 C825.64,435.65 827.92,444.91 830.39,453.97 C832.86,463.03 834.80,470.52 834.69,470.62 C834.59,470.71 830.88,473.47 826.45,476.74 C808.51,490.01 798.14,502.19 796.00,512.51 L 794.86 518.00 L 710.25 518.00 L 719.45 486.25 C724.51,468.79 736.69,426.71 746.53,392.75 L 764.41 331.00 L 847.00 331.00 C866.80,331.00 883.00,331.23 883.00,331.51 C883.00,331.80 880.08,342.09 876.50,354.39 C872.92,366.68 870.00,377.03 870.00,377.37 C870.00,377.72 916.35,378.00 973.00,378.00 L 1076.00 378.00 Z" fill="rgb(163,189,221)"/>
<path d="M 735.88 767.66 L 738.31 767.50 L 803.19 552.76 L 800.63 548.06 C797.11,541.59 795.00,532.88 795.00,524.80 L 795.00 518.02 L 791.51 518.00 L 794.86 518.00 L 796.00 512.51 C798.14,502.19 808.51,490.01 826.45,476.74 C830.88,473.47 834.59,470.71 834.69,470.62 C834.80,470.52 832.86,463.03 830.39,453.97 C827.92,444.91 825.64,435.65 825.33,433.40 C824.05,424.00 831.07,411.36 836.09,414.05 C837.16,414.62 841.33,420.02 845.36,426.05 L 852.68 437.01 L 852.69 436.99 L 859.24 446.83 C867.63,459.44 869.49,463.17 870.99,470.40 C872.51,477.80 872.33,478.95 864.47,510.22 L 858.00 535.93 L 858.00 767.92 C796.74,767.85 752.24,767.76 735.88,767.66 ZM 294.28 467.97 C307.80,457.19 320.18,449.46 338.41,440.10 C353.10,432.57 359.52,427.70 364.91,420.01 C370.56,411.95 373.67,404.58 376.48,392.59 C378.90,382.21 382.42,361.11 383.49,350.50 C383.83,347.20 384.34,342.83 384.63,340.80 L 385.16 337.09 L 421.77 337.02 C441.90,336.99 458.51,336.83 458.66,336.67 C458.82,336.52 458.52,334.84 458.00,332.94 C456.17,326.25 455.20,312.87 456.07,306.01 C457.24,296.64 460.02,289.25 465.39,281.17 C475.53,265.91 489.16,256.67 515.00,247.53 C526.73,243.38 542.81,234.40 550.93,227.46 C553.88,224.95 556.65,223.25 557.09,223.70 C557.53,224.14 559.44,228.55 561.35,233.50 C563.25,238.45 565.74,244.52 566.88,247.00 C570.00,253.76 569.68,259.15 565.92,263.43 C563.82,265.83 561.68,267.12 559.17,267.52 C557.15,267.83 554.04,268.32 552.25,268.59 C549.99,268.94 549.00,269.63 549.00,270.87 C549.00,273.97 544.28,286.68 540.35,294.15 C535.80,302.81 528.24,311.21 517.89,319.08 C508.40,326.31 503.60,331.75 499.88,339.50 L 497.00 345.50 L 497.00 436.00 L 509.39 436.00 C516.94,436.00 523.86,436.29 530.35,436.92 C520.77,436.35 484.39,436.00 434.29,436.00 L 346.79 436.00 L 336.69 441.06 C321.80,448.51 307.56,457.58 294.28,467.97 ZM 188.89 682.00 C187.31,696.62 186.67,711.09 186.31,733.25 C186.73,707.50 187.40,694.23 188.89,682.00 ZM 224.99 549.78 C234.81,531.39 246.87,514.37 261.18,498.71 C247.01,514.31 234.75,531.53 224.99,549.78 ZM 555.38 441.64 C566.26,444.85 576.53,449.56 587.57,456.13 C576.58,449.59 566.12,444.85 555.38,441.64 ZM 205.56 597.18 C209.78,583.09 215.05,569.64 221.37,556.84 C221.26,557.06 221.15,557.28 221.05,557.50 C214.93,570.03 209.90,582.79 205.56,597.18 ZM 224.99 549.78 C223.75,552.11 222.54,554.46 221.37,556.84 C222.54,554.47 223.74,552.12 224.99,549.78 Z" fill="rgb(195,124,80)"/>
<path d="M 560.46 231.23 C558.88,227.26 557.46,224.07 557.09,223.70 C556.65,223.25 553.88,224.95 550.93,227.46 C542.81,234.40 526.73,243.38 515.00,247.53 C489.16,256.67 475.53,265.91 465.39,281.17 C460.02,289.25 457.24,296.64 456.07,306.01 C455.20,312.87 456.17,326.25 458.00,332.94 C458.52,334.84 458.82,336.52 458.66,336.67 C458.51,336.83 441.90,336.99 421.77,337.02 L 385.16 337.09 L 384.63 340.80 C384.34,342.83 383.83,347.20 383.49,350.50 C382.96,355.80 381.81,363.71 380.50,371.60 C382.04,362.17 383.30,352.77 383.67,347.27 L 384.30 338.04 L 361.90 337.77 C342.60,337.54 339.55,337.29 339.84,336.00 C345.75,309.91 347.71,261.68 344.39,223.84 C342.03,196.95 342.85,177.11 346.93,162.00 C351.55,144.88 353.83,138.39 358.55,129.00 C373.40,99.40 399.33,78.21 431.50,69.37 C440.79,66.82 442.86,66.62 460.50,66.63 C476.89,66.63 480.58,66.93 487.34,68.80 C508.74,74.71 524.30,83.56 539.57,98.50 C561.12,119.59 572.45,144.66 573.69,174.00 C574.47,192.65 570.66,205.69 560.99,217.39 L 557.09 222.11 L 560.08 230.21 C560.20,230.54 560.32,230.88 560.46,231.23 ZM 367.50 416.07 C369.73,412.34 371.69,408.20 373.31,403.74 C371.72,408.30 369.86,412.21 367.50,416.07 ZM 350.88 433.08 C347.50,435.26 343.44,437.52 338.41,440.10 C342.62,437.94 347.31,435.29 350.88,433.08 ZM 568.96 256.46 C568.82,259.10 567.81,261.29 565.92,263.43 C567.73,261.38 568.74,259.06 568.96,256.46 ZM 566.39 245.89 C566.24,245.57 566.09,245.22 565.93,244.84 C565.96,244.92 566.00,245.00 566.03,245.07 C566.15,245.35 566.27,245.62 566.39,245.89 Z" fill="rgb(232,169,101)"/>
<path d="M 0.00 384.00 L 0.00 0.00 L 682.50 0.00 L 1365.00 0.00 L 1365.00 384.00 L 1365.00 768.00 L 1111.50 768.00 L 858.00 768.00 L 858.00 651.97 L 858.00 535.93 L 864.47 510.22 C872.33,478.95 872.51,477.80 870.99,470.40 C869.49,463.17 867.63,459.44 859.24,446.83 L 852.69 436.99 L 861.04 407.99 L 869.39 379.00 L 973.19 379.00 L 1077.00 379.00 L 1077.00 303.50 L 1077.00 228.00 L 944.24 228.00 L 811.48 228.00 L 788.50 251.00 L 765.52 274.00 L 788.26 274.00 L 811.00 274.00 L 811.00 302.50 L 811.00 331.00 L 787.71 331.00 L 764.42 331.00 L 737.41 424.25 L 710.40 517.50 L 752.70 517.76 L 795.00 518.02 L 795.00 524.80 C795.00,532.88 797.11,541.59 800.63,548.06 L 803.19 552.76 L 770.75 660.13 L 738.31 767.50 L 733.65 767.80 C731.09,767.97 729.00,767.89 729.00,767.63 C729.00,766.34 655.22,556.89 650.11,543.68 C630.67,493.38 616.28,473.23 587.57,456.13 C562.82,441.39 541.88,436.00 509.39,436.00 L 497.00 436.00 L 497.00 390.75 L 497.00 345.50 L 499.88 339.50 C503.60,331.75 508.40,326.31 517.89,319.08 C528.24,311.21 535.80,302.81 540.35,294.15 C544.28,286.68 549.00,273.97 549.00,270.87 C549.00,269.63 549.99,268.94 552.25,268.59 C554.04,268.32 557.15,267.83 559.17,267.52 C561.68,267.12 563.82,265.83 565.92,263.43 C569.96,258.84 569.99,254.08 566.03,245.07 C564.40,241.36 561.72,234.67 560.08,230.21 L 557.09 222.11 L 560.99 217.39 C570.66,205.69 574.47,192.65 573.69,174.00 C572.45,144.66 561.12,119.59 539.57,98.50 C524.30,83.56 508.74,74.71 487.34,68.80 C480.58,66.93 476.89,66.63 460.50,66.63 C442.86,66.62 440.79,66.82 431.50,69.37 C399.33,78.21 373.40,99.40 358.55,129.00 C353.83,138.39 351.55,144.88 346.93,162.00 C342.85,177.11 342.03,196.95 344.39,223.84 C347.71,261.68 345.75,309.91 339.84,336.00 C339.55,337.29 342.60,337.54 361.90,337.77 L 384.30 338.04 L 383.67 347.27 C382.96,357.81 378.97,382.61 376.06,394.61 C372.33,410.00 364.96,422.70 355.53,429.97 C352.67,432.18 344.97,436.74 338.41,440.10 C315.63,451.80 301.98,460.95 283.83,476.68 C245.49,509.93 219.28,550.53 205.17,598.50 C198.66,620.66 192.58,651.85 188.89,682.00 C187.40,694.23 186.73,707.50 186.31,733.25 L 185.73 768.00 L 92.87 768.00 L 0.00 768.00 L 0.00 384.00 Z" fill="none" class="illustration-background"/>
</g>
</svg>